<svg width="24" height="24" viewBox="0 0 24 24" fill="none" xmlns="http://www.w3.org/2000/svg">
<path d="M16.6464 6.64666C16.8417 6.45139 17.1582 6.45139 17.3535 6.64666C17.5487 6.84192 17.5487 7.15842 17.3535 7.35369L12.707 12.0002L17.3535 16.6467L17.4179 16.7248C17.5461 16.9189 17.5243 17.1828 17.3535 17.3537C17.1826 17.5245 16.9187 17.5463 16.7246 17.4181L16.6464 17.3537L12 12.7072L7.35348 17.3537C7.15822 17.5489 6.84171 17.5489 6.64645 17.3537C6.45118 17.1584 6.45118 16.8419 6.64645 16.6467L11.2929 12.0002L6.64645 7.35369C6.45123 7.15842 6.4512 6.8419 6.64645 6.64666C6.8173 6.47585 7.0813 6.45408 7.27535 6.5822L7.35348 6.64666L12 11.2931L16.6464 6.64666Z" fill="black" fill-opacity="0.9"/>
</svg>
