<svg width="24" height="24" viewBox="0 0 24 24" fill="none" xmlns="http://www.w3.org/2000/svg">
<path fill-rule="evenodd" clip-rule="evenodd" d="M7.47861 8.43547L4.09105 11.823C3.99341 11.9207 3.99341 12.079 4.09105 12.1766L7.47861 15.5642C7.65674 15.7423 7.76583 15.9633 7.80586 16.194C8.03654 16.234 8.25758 16.3431 8.43572 16.5213L11.8233 19.9088C11.9209 20.0065 12.0792 20.0065 12.1768 19.9088L15.5644 16.5213C15.7425 16.3431 15.9636 16.234 16.1942 16.194C16.2343 15.9633 16.3434 15.7423 16.5215 15.5642L19.9091 12.1766C20.0067 12.079 20.0067 11.9207 19.9091 11.823L16.5215 8.43547C16.3434 8.25734 16.2343 8.0363 16.1942 7.80562C15.9636 7.76559 15.7425 7.6565 15.5644 7.47836L12.1768 4.0908C12.0792 3.99317 11.9209 3.99317 11.8233 4.0908L8.43572 7.47836C8.25758 7.6565 8.03654 7.76558 7.80587 7.80562C7.76583 8.0363 7.65674 8.25734 7.47861 8.43547ZM6.7715 7.47836C6.84054 7.5474 6.84054 7.65933 6.7715 7.72836L3.38394 11.1159C2.89578 11.6041 2.89578 12.3955 3.38394 12.8837L6.7715 16.2713C6.84054 16.3403 6.84054 16.4522 6.7715 16.5213C6.70247 16.5903 6.70247 16.7022 6.7715 16.7713L7.22861 17.2284C7.29764 17.2974 7.40957 17.2974 7.47861 17.2284C7.54764 17.1593 7.65957 17.1593 7.72861 17.2284L11.1162 20.6159C11.6043 21.1041 12.3958 21.1041 12.8839 20.6159L16.2715 17.2284C16.3405 17.1593 16.4525 17.1593 16.5215 17.2284C16.5905 17.2974 16.7025 17.2974 16.7715 17.2284L17.2286 16.7713C17.2976 16.7022 17.2976 16.5903 17.2286 16.5213C17.1596 16.4522 17.1596 16.3403 17.2286 16.2713L20.6162 12.8837C21.1043 12.3955 21.1043 11.6041 20.6162 11.1159L17.2286 7.72836C17.1596 7.65933 17.1596 7.5474 17.2286 7.47836C17.2976 7.40933 17.2976 7.2974 17.2286 7.22836L16.7715 6.77126C16.7025 6.70222 16.5905 6.70222 16.5215 6.77126C16.4525 6.84029 16.3405 6.84029 16.2715 6.77126L12.8839 3.38369C12.3958 2.89554 11.6043 2.89554 11.1162 3.38369L7.72861 6.77126C7.65957 6.84029 7.54764 6.84029 7.47861 6.77126C7.40957 6.70222 7.29764 6.70222 7.22861 6.77126L6.7715 7.22836C6.70247 7.2974 6.70247 7.40933 6.7715 7.47836Z" fill="black" fill-opacity="0.9"/>
</svg>
