<svg width="24" height="24" viewBox="0 0 24 24" fill="none" xmlns="http://www.w3.org/2000/svg">
<path fill-rule="evenodd" clip-rule="evenodd" d="M17.3535 6.64667C18.3772 7.67036 18.3772 9.33009 17.3535 10.3538L15.8535 11.8538C15.6583 12.049 15.3417 12.049 15.1464 11.8538C14.9512 11.6585 14.9512 11.3419 15.1464 11.1467L16.6464 9.64667C17.2796 9.01351 17.2796 7.98694 16.6464 7.35378C16.0133 6.72061 14.9867 6.72061 14.3535 7.35378L12.8535 8.85378C12.6583 9.04904 12.3417 9.04904 12.1464 8.85378C11.9512 8.65852 11.9512 8.34193 12.1464 8.14667L13.6464 6.64667C14.6701 5.62298 16.3298 5.62298 17.3535 6.64667ZM6.64692 17.3539C5.62323 16.3302 5.62323 14.6705 6.64692 13.6468L8.14692 12.1468C8.34218 11.9515 8.65876 11.9515 8.85402 12.1468C9.04929 12.3421 9.04929 12.6586 8.85402 12.8539L7.35402 14.3539C6.72086 14.9871 6.72086 16.0136 7.35402 16.6468C7.98719 17.28 9.01375 17.28 9.64692 16.6468L11.1469 15.1468C11.3422 14.9515 11.6588 14.9515 11.854 15.1468C12.0493 15.3421 12.0493 15.6586 11.854 15.8539L10.354 17.3539C9.33033 18.3776 7.67061 18.3776 6.64692 17.3539ZM9.49998 6.00017C9.77612 6.00017 9.99998 6.22402 9.99998 6.50017V8.00017C9.99998 8.27631 9.77612 8.50017 9.49998 8.50017C9.22384 8.50017 8.99998 8.27631 8.99998 8.00017V6.50017C8.99998 6.22402 9.22384 6.00017 9.49998 6.00017ZM6.49998 9.00017C6.22384 9.00017 5.99998 9.22402 5.99998 9.50017C5.99998 9.77631 6.22384 10.0002 6.49998 10.0002H7.99998C8.27612 10.0002 8.49998 9.77631 8.49998 9.50017C8.49998 9.22402 8.27612 9.00017 7.99998 9.00017H6.49998ZM14.5 18.0002C14.2238 18.0002 14 17.7763 14 17.5002V16.0002C14 15.724 14.2238 15.5002 14.5 15.5002C14.7761 15.5002 15 15.724 15 16.0002V17.5002C15 17.7763 14.7761 18.0002 14.5 18.0002ZM17.5 15.0002C17.7761 15.0002 18 14.7763 18 14.5002C18 14.224 17.7761 14.0002 17.5 14.0002H16C15.7238 14.0002 15.5 14.224 15.5 14.5002C15.5 14.7763 15.7238 15.0002 16 15.0002H17.5Z" fill="black" fill-opacity="0.9"/>
</svg>
