<svg width="24" height="24" viewBox="0 0 24 24" fill="none" xmlns="http://www.w3.org/2000/svg">
<path fill-rule="evenodd" clip-rule="evenodd" d="M16.3711 13.5947L16.4527 13.0898C16.6404 11.9281 16.2731 10.6874 15.2929 9.70722C15.0509 9.46521 14.6012 9.18518 13.9349 8.89728C13.2868 8.61723 12.5101 8.36168 11.6844 8.13412C10.4285 7.78802 9.10609 7.51932 8.03687 7.32934L11.3541 10.6466C11.9116 10.3805 12.5994 10.4783 13.0611 10.94C13.6469 11.5258 13.6469 12.4756 13.0611 13.0614C12.4753 13.6471 11.5256 13.6471 10.9398 13.0614C10.4778 12.5994 10.3802 11.9111 10.6468 11.3535L7.32898 8.03566C7.51898 9.10512 7.78776 10.4281 8.13401 11.6846C8.36156 12.5103 8.61711 13.287 8.89716 13.9351C9.18504 14.6014 9.46507 15.0511 9.70707 15.2931C10.7095 16.2955 11.9471 16.6718 13.1027 16.475L13.6122 16.3882L13.9777 16.7537L15.2088 17.9849L17.9851 15.2086L16.7328 13.9564L16.3711 13.5947ZM17.4399 13.2493C17.6803 11.7609 17.2004 10.2005 16 9.00011C14.4979 7.49801 9.61172 6.56007 7.27173 6.18614C6.6278 6.08324 6.08311 6.62792 6.18602 7.27185C6.55996 9.61186 7.4979 14.4981 8.99996 16.0002C10.2139 17.2141 11.7715 17.7161 13.2706 17.4608L14.5017 18.692C14.8922 19.0825 15.5254 19.0825 15.9159 18.692L18.6922 15.9157C19.0827 15.5252 19.0827 14.8921 18.6922 14.5015L17.4399 13.2493ZM12.354 12.3542C12.5492 12.159 12.5492 11.8424 12.354 11.6471C12.1587 11.4519 11.8421 11.4519 11.6469 11.6471C11.4516 11.8424 11.4516 12.159 11.6469 12.3542C11.8421 12.5495 12.1587 12.5495 12.354 12.3542Z" fill="black" fill-opacity="0.9"/>
</svg>
