<svg width="16" height="16" viewBox="0 0 16 16" fill="none" xmlns="http://www.w3.org/2000/svg">
<path fill-rule="evenodd" clip-rule="evenodd" d="M3.52638 7.5008C3.77473 5.25044 5.68245 3.5 7.999 3.5C9.33175 3.5 10.5292 4.07938 11.3532 5H9.99902C9.72288 5 9.49902 5.22386 9.49902 5.5C9.49902 5.77614 9.72288 6 9.99902 6H12.499C12.7752 6 12.999 5.77614 12.999 5.5V3C12.999 2.72386 12.7752 2.5 12.499 2.5C12.2229 2.5 11.999 2.72386 11.999 3V4.22509C10.9963 3.1629 9.57504 2.5 7.999 2.5C5.12985 2.5 2.77383 4.69694 2.52139 7.50037C2.49662 7.7754 2.72286 8 2.999 8C3.27514 8 3.49608 7.77528 3.52638 7.5008ZM4.64484 11H5.99902C6.27517 11 6.49902 10.7761 6.49902 10.5C6.49902 10.2239 6.27517 10 5.99902 10H3.49902C3.22288 10 2.99902 10.2239 2.99902 10.5V13C2.99902 13.2761 3.22288 13.5 3.49902 13.5C3.77517 13.5 3.99902 13.2761 3.99902 13V11.775C5.00179 12.8371 6.42298 13.5 7.999 13.5C10.8681 13.5 13.2242 11.3031 13.4766 8.49963C13.5014 8.2246 13.2751 8 12.999 8C12.7229 8 12.5019 8.22472 12.4716 8.4992C12.2233 10.7496 10.3156 12.5 7.999 12.5C6.66625 12.5 5.46882 11.9206 4.64484 11Z" fill="black" fill-opacity="0.9"/>
</svg>
