<svg width="24" height="24" viewBox="0 0 24 24" fill="none" xmlns="http://www.w3.org/2000/svg">
<path fill-rule="evenodd" clip-rule="evenodd" d="M9.59615 16.5967C9.40089 16.792 9.40089 17.1086 9.59615 17.3038C9.79142 17.4991 10.108 17.4991 10.3033 17.3038L15.253 12.3541C15.4483 12.1588 15.4483 11.8422 15.253 11.647L10.3033 6.69723C10.108 6.50197 9.79142 6.50197 9.59615 6.69723C9.40089 6.89249 9.40089 7.20907 9.59615 7.40433L11.7707 9.57893C10.6955 11.0093 10.6956 12.9915 11.7711 14.4217L9.59615 16.5967ZM12.4878 13.7051L14.1923 12.0005L12.4874 10.2956C11.7899 11.3213 11.7901 12.6795 12.4878 13.7051Z" fill="black" fill-opacity="0.9"/>
</svg>
