<svg width="24" height="24" viewBox="0 0 24 24" fill="none" xmlns="http://www.w3.org/2000/svg">
<path fill-rule="evenodd" clip-rule="evenodd" d="M7 12C7 14.4189 8.71776 16.4367 11 16.8999V7.09998C8.71776 7.56325 7 9.581 7 12Z" fill="black" fill-opacity="0.3"/>
<path fill-rule="evenodd" clip-rule="evenodd" d="M18.0002 12C18.0002 15.5261 15.3921 18.4446 12.0002 18.9292V5.07072C15.3921 5.55532 18.0002 8.47381 18.0002 12ZM11.9983 19.9383C15.9455 19.4471 19.0002 16.0803 19.0002 12C19.0002 7.91966 15.9455 4.55283 11.9983 4.06161C11.4502 3.99341 11.0002 4.44768 11.0002 4.99996V6.08288C11.0002 6.08289 11.0001 6.08291 11 6.08292C8.16229 6.559 6 9.02697 6 12C6 14.973 8.16229 17.4409 11 17.917C11.0001 17.917 11.0002 17.917 11.0002 17.917V19C11.0002 19.5522 11.4502 20.0065 11.9983 19.9383ZM11 16.8999C8.71776 16.4367 7 14.4189 7 12C7 9.58101 8.71776 7.56325 11 7.09998V16.8999Z" fill="black" fill-opacity="0.9"/>
</svg>
