<svg width="24" height="24" viewBox="0 0 24 24" fill="none" xmlns="http://www.w3.org/2000/svg">
<path fill-rule="evenodd" clip-rule="evenodd" d="M20.9986 11.183C20.9664 12.0325 20.4007 12.7688 19.5882 13.0188L14.5645 14.5645L13.0188 19.5882C12.7688 20.4007 12.0325 20.9664 11.183 20.9986C10.3336 21.0308 9.55653 20.5226 9.2457 19.7314L4.13856 6.73136C3.84765 5.99088 4.02329 5.1484 4.58584 4.58584C5.1484 4.02329 5.99088 3.84765 6.73136 4.13856L19.7314 9.2457C20.5226 9.55653 21.0308 10.3336 20.9986 11.183ZM13.7644 13.7644L12.063 19.2941C11.938 19.7004 11.5698 19.9832 11.1451 19.9993C10.7204 20.0155 10.3319 19.7613 10.1764 19.3657L5.06931 6.36571C4.92386 5.99547 5.01167 5.57423 5.29295 5.29295C5.57423 5.01167 5.99547 4.92386 6.36571 5.06931L19.3657 10.1764C19.7613 10.3319 20.0155 10.7204 19.9993 11.1451C19.9832 11.5698 19.7004 11.938 19.2941 12.063L13.7644 13.7644Z" fill="black" fill-opacity="0.9"/>
</svg>
