<svg width="24" height="24" viewBox="0 0 24 24" fill="none" xmlns="http://www.w3.org/2000/svg">
<path fill-rule="evenodd" clip-rule="evenodd" d="M5.50005 11.5432C5.10952 11.9337 5.10952 12.5669 5.50005 12.9574L8.70974 16.1671C8.71518 16.1726 8.72072 16.1779 8.72634 16.183L10.4332 17.8898C11.9158 19.3725 14.368 19.1982 15.626 17.5208C15.7915 17.3002 15.9295 17.0598 16.0367 16.806C16.9982 14.5303 15.3319 11.9998 12.8573 11.9998H11.208L12.6044 10.6034C12.7997 10.4081 12.7997 10.0915 12.6044 9.89627C12.4092 9.70101 12.0926 9.70101 11.8973 9.89627L9.64734 12.1463C9.45208 12.3415 9.45208 12.6581 9.64734 12.8534L11.8973 15.1034C12.0926 15.2986 12.4092 15.2986 12.6044 15.1034C12.7997 14.9081 12.7997 14.5915 12.6044 14.3963L11.208 12.9998H12.8573C14.6122 12.9998 15.8001 14.7966 15.1156 16.4169C15.0399 16.5959 14.9425 16.7655 14.826 16.9208C13.9331 18.1114 12.1926 18.2351 11.1403 17.1827L7.91683 13.9593C7.91139 13.9538 7.90585 13.9485 7.90022 13.9434L6.20715 12.2503L12.2504 6.20703L18.2937 12.2503L17.4782 13.0658C17.283 13.261 17.283 13.5776 17.4782 13.7729C17.6735 13.9682 17.9901 13.9682 18.1853 13.7729L19.0008 12.9574C19.3913 12.5669 19.3913 11.9337 19.0008 11.5432L12.9575 5.49992C12.567 5.1094 11.9338 5.1094 11.5433 5.49992L5.50005 11.5432Z" fill="black" fill-opacity="0.9"/>
</svg>
