<svg width="24" height="24" viewBox="0 0 24 24" fill="none" xmlns="http://www.w3.org/2000/svg">
<path fill-rule="evenodd" clip-rule="evenodd" d="M3.10255 10.1897C2.51676 10.7755 2.51676 11.7252 3.10255 12.311L7.14644 16.3549C7.15273 16.3612 7.15914 16.3673 7.16568 16.3732L9.45056 18.658C11.3525 20.5599 14.4979 20.3364 16.1117 18.1846C16.3282 17.8961 16.5082 17.5805 16.6468 17.2479C17.8805 14.2871 15.7146 11.0003 12.5 11.0003H10.2071L12.3535 8.8539C12.5488 8.65864 12.5488 8.34206 12.3535 8.1468C12.1583 7.95153 11.8417 7.95153 11.6464 8.1468L8.64642 11.1468C8.45116 11.3421 8.45116 11.6586 8.64642 11.8539L11.6464 14.8539C11.8417 15.0492 12.1583 15.0492 12.3535 14.8539C12.5488 14.6586 12.5488 14.3421 12.3535 14.1468L10.2071 12.0003H12.5C14.9939 12.0003 16.6857 14.5546 15.7238 16.8633C15.6169 17.1196 15.4781 17.3628 15.3117 17.5846C14.0631 19.2496 11.6293 19.4225 10.1577 17.9509L5.85352 13.6468C5.84724 13.6405 5.84083 13.6344 5.8343 13.6285L3.80965 11.6039C3.61439 11.4086 3.61439 11.0921 3.80965 10.8968L11.3959 3.31051C11.5912 3.11525 11.9078 3.11525 12.103 3.31051L19.6893 10.8968C19.8846 11.0921 19.8846 11.4086 19.6893 11.6039L18.8378 12.4555C18.6425 12.6507 18.6425 12.9673 18.8378 13.1626C19.033 13.3579 19.3496 13.3579 19.5449 13.1626L20.3964 12.311C20.9822 11.7252 20.9822 10.7755 20.3964 10.1897L12.8102 2.6034C12.2244 2.01762 11.2746 2.01761 10.6888 2.6034L3.10255 10.1897Z" fill="black" fill-opacity="0.9"/>
</svg>
