<svg width="24" height="24" viewBox="0 0 24 24" fill="none" xmlns="http://www.w3.org/2000/svg">
<path d="M12 18.9293C8.6081 18.4447 6 15.5262 6 12C6 8.47389 8.6081 5.5554 12 5.0708V18.9293Z" fill="black" fill-opacity="0.3"/>
<path fill-rule="evenodd" clip-rule="evenodd" d="M6 12C6 15.5261 8.6081 18.4446 12 18.9292V5.07072C8.6081 5.55532 6 8.47381 6 12ZM12.002 19.9383C8.05471 19.4471 5 16.0803 5 12C5 7.91966 8.05471 4.55283 12.002 4.06161C12.55 3.99341 13 4.44768 13 4.99996V6.08288C13.0001 6.08289 13.0002 6.08291 13.0002 6.08292C15.838 6.559 18.0002 9.02697 18.0002 12C18.0002 14.973 15.838 17.4409 13.0002 17.917C13.0002 17.917 13.0001 17.917 13 17.917V19C13 19.5522 12.55 20.0065 12.002 19.9383ZM13.0002 16.8999C15.2825 16.4367 17.0002 14.4189 17.0002 12C17.0002 9.58101 15.2825 7.56325 13.0002 7.09998V16.8999Z" fill="black" fill-opacity="0.9"/>
</svg>
