<svg width="24" height="24" viewBox="0 0 24 24" fill="none" xmlns="http://www.w3.org/2000/svg">
<path fill-rule="evenodd" clip-rule="evenodd" d="M10.5145 7.47479L13.5144 9.27477C13.8156 9.45549 13.9999 9.781 13.9999 10.1323V13.8675C13.9999 14.2188 13.8156 14.5443 13.5144 14.725L10.5145 16.525C10.1978 16.715 9.80218 16.715 9.4855 16.525L6.4855 14.725C6.1843 14.5443 6 14.2188 6 13.8675V10.1323C6 9.78101 6.1843 9.4555 6.4855 9.27478L9.48549 7.47478C9.80218 7.28477 10.1978 7.28477 10.5145 7.47479ZM8.971 6.61729C9.60437 6.23727 10.3956 6.23727 11.029 6.6173L14.0289 8.41728C14.6313 8.77873 14.9999 9.42974 14.9999 10.1323V13.8675C14.9999 14.57 14.6313 15.221 14.0289 15.5825L11.029 17.3825C10.3956 17.7625 9.60437 17.7625 8.971 17.3825L5.97101 15.5825C5.3686 15.221 5 14.57 5 13.8675V10.1323C5 9.42974 5.3686 8.77873 5.97101 8.41728L8.971 6.61729ZM12.9714 17.3827C13.6047 17.7625 14.3957 17.7624 15.029 17.3825L18.0289 15.5825C18.6313 15.221 18.9999 14.57 18.9999 13.8675V10.1323C18.9999 9.42974 18.6313 8.77873 18.0289 8.41728L15.029 6.6173C14.396 6.23751 13.6053 6.23727 12.9722 6.61657L14.1979 7.35205C14.308 7.37425 14.4151 7.41517 14.5145 7.47479L17.5144 9.27477C17.8156 9.45549 17.9999 9.781 17.9999 10.1323V13.8675C17.9999 14.2188 17.8156 14.5443 17.5144 14.725L14.5145 16.525C14.4144 16.585 14.3064 16.6261 14.1956 16.6482L12.9714 17.3827ZM9 11.9999C9 11.4476 9.44772 10.9999 10 10.9999C10.5523 10.9999 11 11.4476 11 11.9999C11 12.5522 10.5523 12.9999 10 12.9999C9.44772 12.9999 9 12.5522 9 11.9999Z" fill="black" fill-opacity="0.9"/>
</svg>
