<svg width="24" height="24" viewBox="0 0 24 24" fill="none" xmlns="http://www.w3.org/2000/svg">
<path fill-rule="evenodd" clip-rule="evenodd" d="M9.32084 5.53276C9.57596 5.42708 9.86845 5.54823 9.97412 5.80336L10.7507 7.67807C10.8525 7.92384 10.7117 8.20244 10.4661 8.3045C10.2203 8.40659 9.92865 8.30671 9.82683 8.06089L9.05024 6.18604C8.94457 5.93092 9.06572 5.63843 9.32084 5.53276ZM8.06056 9.82715L6.18569 9.05056C5.93057 8.94488 5.63809 9.06603 5.53241 9.32116C5.42674 9.57628 5.54789 9.86876 5.80301 9.97444L7.67774 10.751C7.92351 10.8528 8.20211 10.712 8.30417 10.4664C8.40626 10.2207 8.30638 9.92898 8.06056 9.82715ZM7.67772 13.2489L5.80293 14.0255C5.54781 14.1312 5.42666 14.4236 5.53233 14.6788C5.63801 14.9339 5.93049 15.055 6.18561 14.9494L8.06054 14.1727C8.30636 14.0709 8.40623 13.7792 8.30415 13.5335C8.20209 13.2879 7.92349 13.1471 7.67772 13.2489ZM9.8267 15.939L9.05012 17.8138C8.94444 18.069 9.06559 18.3614 9.32072 18.4671C9.57584 18.5728 9.86832 18.4516 9.974 18.1965L10.7505 16.3218C10.8523 16.0761 10.7116 15.7975 10.4659 15.6954C10.2202 15.5933 9.92853 15.6932 9.8267 15.939ZM16.3215 10.7509L18.196 9.97447C18.4512 9.8688 18.5723 9.57631 18.4666 9.32119C18.361 9.06607 18.0685 8.94492 17.8134 9.05059L15.9387 9.82711C15.6929 9.92893 15.593 10.2206 15.6951 10.4663C15.7971 10.712 16.0757 10.8527 16.3215 10.7509ZM14.1723 8.06085L14.9489 6.18609C15.0546 5.93097 14.9334 5.63849 14.6783 5.53281C14.4232 5.42714 14.1307 5.54829 14.025 5.80341L13.2485 7.67803C13.1467 7.9238 13.2875 8.20241 13.5331 8.30447C13.7788 8.40654 14.0705 8.30666 14.1723 8.06085ZM12.3508 11.0637C11.9837 10.926 11.5699 11.0156 11.2926 11.2929C11.0153 11.5702 10.9257 11.9839 11.0634 12.3511L13.3134 18.3511C13.4671 18.761 13.8695 19.0233 14.3066 18.9984C14.7436 18.9735 15.1137 18.6672 15.2198 18.2425L15.8243 15.8246L18.2422 15.2201C18.6669 15.114 18.9732 14.7439 18.9981 14.3069C19.023 13.8698 18.7607 13.4674 18.3508 13.3137L12.3508 11.0637ZM16.2909 14.6772L14.9997 15L14.6769 16.2912L14.2497 18L13.6312 16.3508L12.4657 13.2428L11.9997 12L13.2425 12.466L16.3505 13.6315L17.9997 14.25L16.2909 14.6772Z" fill="black" fill-opacity="0.9"/>
</svg>
