<svg width="24" height="24" viewBox="0 0 24 24" fill="none" xmlns="http://www.w3.org/2000/svg">
<path fill-rule="evenodd" clip-rule="evenodd" d="M8 9.50005C8 9.2239 7.77614 9.00005 7.5 9.00005C7.22386 9.00005 7 9.2239 7 9.50005L7 14.5C7 14.7762 7.22386 15 7.5 15C7.77614 15 8 14.7762 8 14.5V9.50005ZM17 9.50005C17 9.2239 16.7761 9.00005 16.5 9.00005C16.2239 9.00005 16 9.2239 16 9.50005V14.5C16 14.7762 16.2239 15 16.5 15C16.7761 15 17 14.7762 17 14.5V9.50005ZM9 7.50005C9 7.2239 9.22386 7.00005 9.5 7.00005H14.5C14.7761 7.00005 15 7.2239 15 7.50005C15 7.77619 14.7761 8.00005 14.5 8.00005H9.5C9.22386 8.00005 9 7.77619 9 7.50005ZM9.5 16C9.22386 16 9 16.2239 9 16.5C9 16.7762 9.22386 17 9.5 17H14.5C14.7761 17 15 16.7762 15 16.5C15 16.2239 14.7761 16 14.5 16H9.5Z" fill="black" fill-opacity="0.9"/>
</svg>
