<svg width="24" height="24" viewBox="0 0 24 24" fill="none" xmlns="http://www.w3.org/2000/svg">
<path fill-rule="evenodd" clip-rule="evenodd" d="M11.8233 4.09129L4.09105 11.8235C3.99341 11.9212 3.99341 12.0794 4.09105 12.1771L11.8233 19.9093C11.9209 20.0069 12.0792 20.0069 12.1768 19.9093L19.9091 12.1771C20.0067 12.0794 20.0067 11.9212 19.9091 11.8235L12.1768 4.09129C12.0792 3.99366 11.9209 3.99366 11.8233 4.09129ZM11.1162 3.38418L3.38394 11.1164C2.89578 11.6046 2.89578 12.396 3.38394 12.8842L11.1162 20.6164C11.6043 21.1046 12.3958 21.1046 12.8839 20.6164L20.6162 12.8842C21.1043 12.396 21.1043 11.6046 20.6162 11.1164L12.8839 3.38418C12.3958 2.89603 11.6043 2.89603 11.1162 3.38418ZM11.5001 9.0002C11.5001 8.72406 11.7239 8.5002 12.0001 8.5002C12.2762 8.5002 12.5001 8.72406 12.5001 9.0002V11.5002H15.0001C15.2762 11.5002 15.5001 11.7241 15.5001 12.0002C15.5001 12.2763 15.2762 12.5002 15.0001 12.5002H12.5001V15.0002C12.5001 15.2763 12.2762 15.5002 12.0001 15.5002C11.7239 15.5002 11.5001 15.2763 11.5001 15.0002V12.5002H9.00006C8.72392 12.5002 8.50006 12.2763 8.50006 12.0002C8.50006 11.7241 8.72392 11.5002 9.00006 11.5002H11.5001V9.0002Z" fill="black" fill-opacity="0.9"/>
</svg>
