<svg width="24" height="24" viewBox="0 0 24 24" fill="none" xmlns="http://www.w3.org/2000/svg">
<path fill-rule="evenodd" clip-rule="evenodd" d="M17.586 8.50145L15.5002 6.41553L13.4145 8.50114L15.5003 10.5871L17.586 8.50145ZM16.2073 5.70844C15.8168 5.31791 15.1837 5.31789 14.7931 5.7084L12.7074 7.79401C12.3168 8.18453 12.3168 8.81769 12.7073 9.20823L14.7932 11.2942C15.1837 11.6847 15.8169 11.6847 16.2074 11.2942L18.2931 9.20857C18.6836 8.81806 18.6836 8.1849 18.2931 7.79437L16.2073 5.70844ZM7.00012 13.9999H10.0001V16.9999H7.00012V13.9999ZM6.00012 13.9999C6.00012 13.4476 6.44784 12.9999 7.00012 12.9999H10.0001C10.5524 12.9999 11.0001 13.4476 11.0001 13.9999V16.9999C11.0001 17.5522 10.5524 17.9999 10.0001 17.9999H7.00012C6.44784 17.9999 6.00012 17.5522 6.00012 16.9999V13.9999ZM17 15.5001C17 16.3285 16.3285 17.0001 15.5 17.0001C14.6716 17.0001 14 16.3285 14 15.5001C14 14.6716 14.6716 14.0001 15.5 14.0001C16.3285 14.0001 17 14.6716 17 15.5001ZM18 15.5001C18 16.8808 16.8807 18.0001 15.5 18.0001C14.1193 18.0001 13 16.8808 13 15.5001C13 14.1194 14.1193 13.0001 15.5 13.0001C16.8807 13.0001 18 14.1194 18 15.5001ZM6.08579 6.33612C6.74015 5.68176 7.73514 5.57562 8.5 6.01771C9.26486 5.57562 10.2598 5.68176 10.9142 6.33612C11.6953 7.11717 11.6953 8.3835 10.9142 9.16455L9.91421 10.1646L9.20711 10.8717C9.01957 11.0592 8.76522 11.1646 8.5 11.1646C8.23478 11.1646 7.98043 11.0592 7.79289 10.8717L7.08579 10.1646L6.08579 9.16455C5.30474 8.3835 5.30474 7.11717 6.08579 6.33612ZM8.5 7.33612L8.79289 7.04323L8.79315 7.04297C9.1837 6.65271 9.81667 6.65279 10.2071 7.04323C10.5976 7.43376 10.5976 8.06692 10.2071 8.45744L9.20711 9.45744L8.5 10.1646L7.79289 9.45744L6.79289 8.45744C6.40237 8.06692 6.40237 7.43376 6.79289 7.04323C7.18342 6.65271 7.81658 6.65271 8.20711 7.04323L8.5 7.33612Z" fill="black" fill-opacity="0.9"/>
</svg>
