<svg width="24" height="24" viewBox="0 0 24 24" fill="none" xmlns="http://www.w3.org/2000/svg">
<path fill-rule="evenodd" clip-rule="evenodd" d="M17.0149 4.44001L16.7 5.69973L15.4403 6.01466C14.9353 6.1409 14.9353 6.85855 15.4403 6.9848L16.7 7.29973L17.0149 8.55944C17.1412 9.06442 17.8588 9.06442 17.9851 8.55944L18.3 7.29973L19.5597 6.9848C20.0647 6.85855 20.0647 6.1409 19.5597 6.01466L18.3 5.69973L17.9851 4.44001C17.8588 3.93504 17.1412 3.93504 17.0149 4.44001ZM6 7.49973C6 6.6713 6.67157 5.99973 7.5 5.99973H13.5C13.7761 5.99973 14 6.22358 14 6.49973C14 6.77587 13.7761 6.99973 13.5 6.99973H7.5C7.22386 6.99973 7 7.22358 7 7.49973V13.7929L9.64645 11.1465C9.84171 10.9512 10.1583 10.9512 10.3536 11.1465L16.2068 16.9997H16.5C16.7761 16.9997 17 16.7759 17 16.4997V10.4997C17 10.2236 17.2239 9.99973 17.5 9.99973C17.7761 9.99973 18 10.2236 18 10.4997V16.4997C18 17.3282 17.3284 17.9997 16.5 17.9997H16.0168C16.0056 18.0001 15.9944 18.0001 15.9832 17.9997H7.5C6.67157 17.9997 6 17.3282 6 16.4997V15.0001V14.9999V7.49973ZM7 16.4997V15.2071L10 12.2071L14.7926 16.9997H7.5C7.22386 16.9997 7 16.7759 7 16.4997Z" fill="black" fill-opacity="0.9"/>
</svg>
