<svg width="24" height="24" viewBox="0 0 24 24" fill="none" xmlns="http://www.w3.org/2000/svg">
<path fill-rule="evenodd" clip-rule="evenodd" d="M18 7C18 8.10457 17.1046 9 16 9C14.8955 9 14 8.10457 14 7C14 5.89543 14.8955 5 16 5C17.1046 5 18 5.89543 18 7ZM16 8C16.5523 8 17 7.55229 17 7C17 6.44771 16.5523 6 16 6C15.4478 6 15 6.44771 15 7C15 7.55229 15.4478 8 16 8ZM16 15C16.2762 15 16.5 15.2239 16.5 15.5V16.5H17.5C17.7762 16.5 18 16.7239 18 17C18 17.2761 17.7762 17.5 17.5 17.5H16.5V18.5C16.5 18.7761 16.2762 19 16 19C15.7239 19 15.5 18.7761 15.5 18.5V17.5H14.5C14.2239 17.5 14 17.2761 14 17C14 16.7239 14.2239 16.5 14.5 16.5H15.5V15.5C15.5 15.2239 15.7239 15 16 15ZM8.56424 7.61991L7.97543 9.97515L5.62019 10.564C4.12545 10.9376 4.12547 13.0619 5.62019 13.4356L7.97543 14.0244L8.56424 16.3796C8.93793 17.8744 11.0622 17.8744 11.4359 16.3796L12.0247 14.0244L14.3799 13.4356C15.8747 13.0619 15.8746 10.9376 14.3799 10.564L12.0247 9.97515L11.4359 7.61991C11.0622 6.12518 8.93792 6.12518 8.56424 7.61991ZM9.53439 7.86245L8.80005 10.7998L5.86273 11.5341C5.37795 11.6553 5.37795 12.3442 5.86273 12.4654L8.80005 13.1998L9.53439 16.1371C9.65558 16.6219 10.3445 16.6219 10.4657 16.1371L11.2001 13.1998L14.1374 12.4654C14.6222 12.3442 14.6222 11.6553 14.1374 11.5341L11.2001 10.7998L10.4657 7.86245C10.3445 7.37767 9.65558 7.37767 9.53439 7.86245Z" fill="black" fill-opacity="0.9"/>
</svg>
