<svg width="24" height="24" viewBox="0 0 24 24" fill="none" xmlns="http://www.w3.org/2000/svg">
<path fill-rule="evenodd" clip-rule="evenodd" d="M3.00773 4.12404C2.96945 3.81783 3.07469 3.51111 3.2929 3.2929C3.51111 3.07469 3.81784 2.96945 4.12404 3.00773L8.12404 3.50773C8.3447 3.53531 8.54987 3.63566 8.70711 3.7929L20.5 15.5858C21.2811 16.3668 21.2811 17.6332 20.5 18.4142L18.4142 20.5C17.6332 21.2811 16.3668 21.2811 15.5858 20.5L3.7929 8.70711C3.63566 8.54987 3.53531 8.3447 3.50773 8.12404L3.00773 4.12404ZM4.00001 4.00001L4.12798 5.02379L4.50001 8.00001L13.6465 17.1465L17.1465 13.6465L8.00001 4.50001L5.02379 4.12798L4.00001 4.00001ZM17.8536 14.3536L14.3536 17.8536L16.2929 19.7929C16.6834 20.1834 17.3166 20.1834 17.7071 19.7929L19.7929 17.7071C20.1834 17.3166 20.1834 16.6834 19.7929 16.2929L17.8536 14.3536Z" fill="black" fill-opacity="0.9"/>
</svg>
