<svg width="24" height="24" viewBox="0 0 24 24" fill="none" xmlns="http://www.w3.org/2000/svg">
<path fill-rule="evenodd" clip-rule="evenodd" d="M15.1481 12.8549C14.9521 12.6605 14.9508 12.3439 15.1453 12.1478L16.317 10.9668C17.2202 10.0565 17.2172 8.58724 16.3105 7.68048C15.3986 6.76864 13.9194 6.77157 13.0111 7.68702L11.8552 8.85214C11.6607 9.04817 11.3441 9.04942 11.1481 8.85494C10.9521 8.66045 10.9508 8.34387 11.1453 8.14784L12.3012 6.98271C13.5995 5.6741 15.7141 5.66991 17.0176 6.97338C18.3138 8.26956 18.3179 10.3698 17.0269 11.6711L15.8552 12.8521C15.6607 13.0482 15.3441 13.0494 15.1481 12.8549ZM8.85337 11.146C9.04885 11.3411 9.04921 11.6577 8.85417 11.8531L7.67442 13.0356C6.76687 13.9452 6.76771 15.418 7.67629 16.3266C8.58632 17.2366 10.062 17.2358 10.971 16.3247L12.1463 15.1468C12.3413 14.9514 12.6579 14.951 12.8534 15.146C13.0488 15.3411 13.0492 15.6577 12.8542 15.8531L11.679 17.031C10.3796 18.3334 8.27006 18.3346 6.96918 17.0337C5.67039 15.7349 5.6692 13.6295 6.96651 12.3293L8.14626 11.1468C8.3413 10.9514 8.65788 10.951 8.85337 11.146ZM14.3538 10.3535C14.549 10.1583 14.549 9.84169 14.3538 9.64643C14.1585 9.45117 13.8419 9.45117 13.6467 9.64643L9.64666 13.6464C9.4514 13.8417 9.4514 14.1583 9.64666 14.3535C9.84192 14.5488 10.1585 14.5488 10.3538 14.3535L14.3538 10.3535Z" fill="black" fill-opacity="0.9"/>
</svg>
