<svg width="24" height="24" viewBox="0 0 24 24" fill="none" xmlns="http://www.w3.org/2000/svg">
<path fill-rule="evenodd" clip-rule="evenodd" d="M14.2792 10.0001L14.0513 9.3163L11.9999 3.16235L9.94863 9.3163L9.7207 10.0001H8.99994L3.1607 10.0001L7.99154 13.3968L8.59963 13.8244L8.36543 14.5299L6.43678 20.3397L11.4086 16.6937L11.9999 16.26L12.5913 16.6937L17.5631 20.3397L15.6345 14.5299L15.4003 13.8244L16.0084 13.3968L20.8392 10.0001H14.9999H14.2792ZM8.99994 9.00008H3.1607C2.18407 9.00008 1.78661 10.2564 2.58552 10.8181L7.41635 14.2149L5.48771 20.0246C5.18076 20.9492 6.24252 21.7222 7.02814 21.1461L11.9999 17.5001L16.9717 21.1461C17.7574 21.7222 18.8191 20.9492 18.5122 20.0246L16.5835 14.2149L21.4144 10.8181C22.2133 10.2564 21.8158 9.00008 20.8392 9.00008H14.9999L12.9486 2.84613C12.6447 1.93443 11.3552 1.93443 11.0513 2.84612L8.99994 9.00008Z" fill="black" fill-opacity="0.9"/>
</svg>
