<svg width="24" height="24" viewBox="0 0 24 24" fill="none" xmlns="http://www.w3.org/2000/svg">
<path fill-rule="evenodd" clip-rule="evenodd" d="M8 11.5C8 11.7762 8.22386 12 8.5 12H15.289L12.8899 14.3883C12.6942 14.5831 12.6935 14.8997 12.8883 15.0954C13.0831 15.2911 13.3997 15.2918 13.5954 15.097L16.8528 11.8544C16.947 11.7605 17 11.633 17 11.5C17 11.367 16.947 11.2395 16.8528 11.1457L13.5954 7.90303C13.3997 7.70821 13.0831 7.70893 12.8883 7.90463C12.6935 8.10034 12.6942 8.41692 12.8899 8.61174L15.289 11H8.5C8.22386 11 8 11.2239 8 11.5Z" fill="black" fill-opacity="0.9"/>
</svg>
