<svg width="24" height="24" viewBox="0 0 24 24" fill="none" xmlns="http://www.w3.org/2000/svg">
<path fill-rule="evenodd" clip-rule="evenodd" d="M19.4046 5.86174C18.905 5.36217 18.095 5.36217 17.5955 5.86174L12 11.4572V15.2704L19.4163 7.65905C19.9048 7.15767 19.8996 6.35674 19.4046 5.86174ZM11.9938 16.7097L20.1325 8.35691C21.0029 7.4636 20.9936 6.03658 20.1117 5.15464C19.2216 4.26454 17.7784 4.26453 16.8883 5.15464L11.1491 10.8939L2.65178 19.1413C2.50569 19.2831 2.46016 19.4993 2.53666 19.688C2.61317 19.8766 2.79643 20.0001 3.00002 20.0001H8.50002C10.3626 20.0001 11.8854 18.5451 11.9938 16.7097ZM11 12.4322L4.23307 19.0001H8.50002C9.88073 19.0001 11 17.8808 11 16.5001V12.4322Z" fill="black" fill-opacity="0.9"/>
</svg>
