<svg width="16" height="16" viewBox="0 0 16 16" fill="none" xmlns="http://www.w3.org/2000/svg">
<path fill-rule="evenodd" clip-rule="evenodd" d="M11.0623 8.95704L11.1209 8.47601C11.2514 7.40533 10.9243 6.33787 10.2935 5.707C10.1221 5.53558 9.7426 5.31344 9.11958 5.08674C8.52465 4.87026 7.81223 4.68602 7.08007 4.53343C6.29199 4.3692 5.50865 4.24721 4.86917 4.16133L7.74197 7.0337C7.82449 7.01166 7.91121 6.99991 8.00068 6.99991C8.55296 6.99991 9.00068 7.44763 9.00068 7.99991C9.00068 8.5522 8.55296 8.99991 8.00068 8.99991C7.44839 8.99991 7.00068 8.5522 7.00068 7.99991C7.00068 7.91022 7.01249 7.82329 7.03463 7.74058L4.1621 4.86847C4.24799 5.50792 4.36999 6.29123 4.53423 7.07928C4.68683 7.81143 4.87107 8.52383 5.08756 9.11877C5.31426 9.74179 5.5364 10.1213 5.70783 10.2927C6.33278 10.9177 7.38654 11.2449 8.44893 11.1234L8.931 11.0683L9.27265 11.4128L10.4681 12.6183L12.5894 10.497L11.4035 9.30113L11.0623 8.95704ZM12.1136 8.59701C12.2737 7.28346 11.8898 5.88911 11.0007 4.99993C9.67563 3.67478 4.8388 3.13012 3.72877 3.02111C3.5824 3.00674 3.44068 3.0599 3.33668 3.1639L3.16463 3.33595C3.06063 3.43995 3.00747 3.58168 3.02185 3.72805C3.13088 4.83809 3.67565 9.67478 5.00072 10.9999C5.88193 11.8811 7.25936 12.266 8.56257 12.1169L9.75798 13.3225C10.148 13.7158 10.7835 13.7171 11.1752 13.3254L13.2965 11.2041C13.6858 10.8148 13.6872 10.1839 13.2994 9.79291L12.1136 8.59701Z" fill="black" fill-opacity="0.9"/>
</svg>
