<svg width="24" height="24" viewBox="0 0 24 24" fill="none" xmlns="http://www.w3.org/2000/svg">
<path fill-rule="evenodd" clip-rule="evenodd" d="M5.29289 10.7931C4.90237 11.1837 4.90237 11.8168 5.29289 12.2074L7.79289 14.7074C8.18342 15.0979 8.81658 15.0979 9.20711 14.7074L11.7071 12.2074C11.7704 12.144 11.8235 12.0743 11.8663 12.0002H18.5C18.7761 12.0002 19 11.7764 19 11.5002C19 11.2241 18.7761 11.0002 18.5 11.0002H11.8663C11.8235 10.9262 11.7704 10.8565 11.7071 10.7931L9.20711 8.29314C8.81658 7.90261 8.18342 7.90261 7.79289 8.29314L5.29289 10.7931ZM11 11.5002L10.2929 10.7931L9.20711 9.70735L8.5 9.00024L7.79289 9.70735L6.70711 10.7931L6 11.5002L6.70711 12.2074L7.79289 13.2931L8.5 14.0002L9.20711 13.2931L10.2929 12.2074L11 11.5002Z" fill="black" fill-opacity="0.9"/>
</svg>
