<svg width="24" height="24" viewBox="0 0 24 24" fill="none" xmlns="http://www.w3.org/2000/svg">
<path fill-rule="evenodd" clip-rule="evenodd" d="M14.1462 8.14645C14.3415 7.95118 14.658 7.95118 14.8533 8.14645L17.8533 11.1464C17.9471 11.2402 17.9998 11.3674 17.9998 11.5C17.9998 11.6326 17.9471 11.7598 17.8533 11.8536L14.8533 14.8536C14.658 15.0488 14.3415 15.0488 14.1462 14.8536C13.9509 14.6583 13.9509 14.3417 14.1462 14.1464L16.2926 12L7.70684 12.0002L9.85331 14.1467C10.0486 14.342 10.0486 14.6585 9.85331 14.8538C9.65805 15.0491 9.34146 15.0491 9.1462 14.8538L6.1462 11.8538C5.95094 11.6585 5.95094 11.342 6.1462 11.1467L9.1462 8.14669C9.34146 7.95143 9.65805 7.95143 9.85331 8.14669C10.0486 8.34195 10.0486 8.65854 9.85331 8.8538L7.70689 11.0002L16.2927 11L14.1462 8.85355C13.9509 8.65829 13.9509 8.34171 14.1462 8.14645Z" fill="black" fill-opacity="0.9"/>
</svg>
