<svg width="16" height="16" viewBox="0 0 16 16" fill="none" xmlns="http://www.w3.org/2000/svg">
<path fill-rule="evenodd" clip-rule="evenodd" d="M7.99949 2C8.43412 2 8.81898 2.28073 8.95171 2.69459L9.85151 5.5H12.7548C13.1899 5.5 13.575 5.78133 13.7074 6.1958C13.8397 6.61027 13.6889 7.06275 13.3343 7.31492L11.0064 8.97053L11.9443 11.672C12.0864 12.0813 11.9487 12.5356 11.6033 12.7972C11.258 13.0587 10.7834 13.0682 10.4279 12.8205L7.99951 11.1286L5.57125 12.8205C5.21577 13.0682 4.74123 13.0588 4.39585 12.7972C4.05047 12.5356 3.91281 12.0814 4.05487 11.6721L4.99258 8.97056L2.66464 7.31492C2.31007 7.06275 2.15925 6.61027 2.2916 6.1958C2.42396 5.78133 2.80912 5.5 3.24421 5.5H6.14748L7.04727 2.69459C7.18001 2.28073 7.56487 2 7.99949 2ZM6.87692 6.5H4.96962H3.24421L4.65028 7.5L6.18314 8.59017L5.55757 10.3924L4.99958 12L6.39576 11.0272L7.99949 9.90983L9.60334 11.0272L10.9996 12L10.4415 10.3924L9.81585 8.59017L11.3487 7.5L12.7548 6.5H11.0294H9.12206L8.52458 4.63714L7.99949 3L7.47441 4.63714L6.87692 6.5Z" fill="black" fill-opacity="0.9"/>
</svg>
