<svg width="24" height="24" viewBox="0 0 24 24" fill="none" xmlns="http://www.w3.org/2000/svg">
<path fill-rule="evenodd" clip-rule="evenodd" d="M16.5 8.49988C16.7761 8.49988 17 8.72374 17 8.99988V11.4999V13.9999C17 14.276 16.7761 14.4999 16.5 14.4999C16.2239 14.4999 16 14.276 16 13.9999V11.9999L7 11.9999L7 13.9999C7 14.276 6.77614 14.4999 6.5 14.4999C6.22386 14.4999 6 14.276 6 13.9999L6 11.4999L6 8.99988C6 8.72374 6.22386 8.49988 6.5 8.49988C6.77614 8.49988 7 8.72374 7 8.99988L7 10.9999L16 10.9999V8.99988C16 8.72374 16.2239 8.49988 16.5 8.49988Z" fill="black" fill-opacity="0.9"/>
</svg>
