<svg width="24" height="24" viewBox="0 0 24 24" fill="none" xmlns="http://www.w3.org/2000/svg">
<path fill-rule="evenodd" clip-rule="evenodd" d="M15.8619 8.82395C14.1079 6.6911 10.957 6.38397 8.82416 8.13795C7.75763 9.01503 7.14782 10.2404 7.0236 11.5147C6.99681 11.7896 6.75229 11.9907 6.47745 11.9639C6.20261 11.9371 6.00153 11.6925 6.02832 11.4177C6.17721 9.89019 6.90939 8.41788 8.18899 7.36558C10.7484 5.26081 14.5295 5.62936 16.6342 8.18878C16.7657 8.34867 16.8876 8.51345 17 8.68239V6.49999C17 6.22385 17.2239 5.99999 17.5 5.99999C17.7761 5.99999 18 6.22385 18 6.49999V9.49999C18 9.77613 17.7761 9.99999 17.5 9.99999H14.5C14.2239 9.99999 14 9.77613 14 9.49999C14 9.22385 14.2239 8.99999 14.5 8.99999H16.0003C15.9557 8.94061 15.9095 8.88191 15.8619 8.82395ZM17.5226 12.0357C17.7974 12.0625 17.9985 12.307 17.9717 12.5819C17.8228 14.1094 17.0906 15.5817 15.811 16.634C13.2516 18.7388 9.47056 18.3702 7.36579 15.8108C7.23428 15.6509 7.11237 15.4861 7 15.3172V17.5C7 17.7761 6.77614 18 6.5 18C6.22386 18 6 17.7761 6 17.5V14.5C6 14.2238 6.22386 14 6.5 14H9.5C9.77614 14 10 14.2238 10 14.5C10 14.7761 9.77614 15 9.5 15H8.00003C8.04455 15.0592 8.09059 15.1178 8.13816 15.1757C9.89214 17.3085 13.043 17.6156 15.1759 15.8617C16.2424 14.9846 16.8522 13.7592 16.9764 12.4849C17.0032 12.21 17.2477 12.009 17.5226 12.0357Z" fill="black" fill-opacity="0.9"/>
</svg>
