<svg width="24" height="24" viewBox="0 0 24 24" fill="none" xmlns="http://www.w3.org/2000/svg">
<path fill-rule="evenodd" clip-rule="evenodd" d="M6.59105 11.823L11.8233 6.5908C11.9209 6.49317 12.0792 6.49317 12.1768 6.5908L17.4091 11.823C17.5067 11.9207 17.5067 12.079 17.4091 12.1766L14.6465 14.9392C14.5527 15.0329 14.5001 15.1601 14.5001 15.2927C14.5001 15.7382 15.0386 15.9612 15.3536 15.6463L18.1162 12.8837C18.6043 12.3955 18.6043 11.6041 18.1162 11.1159L12.8839 5.88369C12.3958 5.39554 11.6043 5.39554 11.1162 5.8837L5.88394 11.1159C5.39578 11.6041 5.39578 12.3955 5.88394 12.8837L8.6465 15.6463C8.96149 15.9612 9.50006 15.7382 9.50006 15.2927C9.50006 15.1601 9.44738 15.0329 9.35361 14.9392L6.59105 12.1766C6.49341 12.079 6.49342 11.9207 6.59105 11.823ZM12.4962 13.9378C12.4988 13.9581 12.5001 13.9788 12.5001 13.9998V17.9998C12.5001 18.276 12.2762 18.4998 12.0001 18.4998C11.7239 18.4998 11.5001 18.276 11.5001 17.9998V13.9998C11.5001 13.9788 11.5014 13.9581 11.5039 13.9378C10.6393 13.7171 10.0001 12.9331 10.0001 11.9998C10.0001 10.8952 10.8955 9.99981 12.0001 9.99981C13.1046 9.99981 14.0001 10.8952 14.0001 11.9998C14.0001 12.9331 13.3608 13.7171 12.4962 13.9378ZM13.0001 11.9998C13.0001 12.5521 12.5523 12.9998 12.0001 12.9998C11.4478 12.9998 11.0001 12.5521 11.0001 11.9998C11.0001 11.4475 11.4478 10.9998 12.0001 10.9998C12.5523 10.9998 13.0001 11.4475 13.0001 11.9998Z" fill="black" fill-opacity="0.9"/>
</svg>
