<svg width="24" height="24" viewBox="0 0 24 24" fill="none" xmlns="http://www.w3.org/2000/svg">
<path fill-rule="evenodd" clip-rule="evenodd" d="M5.5529 15.2239C5.67639 15.4709 5.97673 15.571 6.22372 15.4475L10.2237 13.4475C10.4706 13.324 10.5708 13.0237 10.4473 12.7767C10.3238 12.5297 10.0234 12.4296 9.77644 12.5531L5.7765 14.5531C5.52951 14.6766 5.4294 14.9769 5.5529 15.2239ZM6.22372 8.55308L12.0001 11.4413L13.4541 10.7143L13.2038 8.96292C13.0547 7.91922 13.5902 6.89719 14.5332 6.4257L14.777 6.30376C15.8521 5.76621 17.1594 6.20187 17.6972 7.27689C18.235 8.35213 17.7992 9.65977 16.7239 10.1974L14.2341 11.4423C14.2273 11.4459 14.2204 11.4494 14.2133 11.4527L13.1181 12.0003L14.2134 12.5479C14.2204 12.5512 14.2273 12.5547 14.2342 12.5583L16.7237 13.8031C17.7991 14.3408 18.235 15.6485 17.6973 16.7239C17.1596 17.7993 15.8519 18.2352 14.7765 17.6975L14.5331 17.5758C13.5901 17.1043 13.0547 16.0824 13.2038 15.0388L13.4542 13.2863L11.7811 12.4498L11.7712 12.4449L5.7765 9.4475C5.52951 9.32401 5.4294 9.02367 5.5529 8.77668C5.67639 8.5297 5.97673 8.42958 6.22372 8.55308ZM14.3969 10.2429L14.1938 8.82147C14.1055 8.20388 14.4224 7.59912 14.9804 7.32012L15.2243 7.19818C15.8054 6.9076 16.5121 7.14311 16.8028 7.72423C17.0935 8.30548 16.858 9.01235 16.2767 9.303L14.3969 10.2429ZM14.397 13.7577L14.1937 15.1802C14.1055 15.7977 14.4223 16.4024 14.9803 16.6814L15.2237 16.8031C15.8051 17.0938 16.5121 16.8581 16.8029 16.2767C17.0936 15.6953 16.8579 14.9882 16.2765 14.6975L14.397 13.7577ZM9.68006 15.3798L9.40021 16.4992L8.2808 16.7791C7.94751 16.8624 7.94751 17.3361 8.2808 17.4194L9.40021 17.6992L9.68006 18.8187C9.76338 19.1519 10.237 19.1519 10.3204 18.8187L10.6002 17.6992L11.7196 17.4194C12.0529 17.3361 12.0529 16.8624 11.7196 16.7791L10.6002 16.4992L10.3204 15.3798C10.237 15.0465 9.76338 15.0465 9.68006 15.3798Z" fill="black" fill-opacity="0.9"/>
</svg>
