<svg width="24" height="24" viewBox="0 0 24 24" fill="none" xmlns="http://www.w3.org/2000/svg">
<path fill-rule="evenodd" clip-rule="evenodd" d="M16.371 13.595L16.4526 13.09C16.6402 11.9284 16.273 10.6877 15.2928 9.70746C15.0508 9.46545 14.6011 9.18542 13.9348 8.89753C13.2867 8.61747 12.51 8.36192 11.6843 8.13437C10.4284 7.78827 9.10597 7.51957 8.03675 7.32958L11.8533 11.1461C12.4108 10.8798 13.0988 10.9775 13.5606 11.4393C14.1464 12.0251 14.1464 12.9749 13.5606 13.5607C12.9748 14.1464 12.0251 14.1464 11.4393 13.5607C10.9774 13.0988 10.8797 12.4107 11.1461 11.8532L7.32886 8.0359C7.51886 9.10536 7.78764 10.4284 8.13388 11.6848C8.36143 12.5105 8.61698 13.2872 8.89703 13.9354C9.18492 14.6016 9.46495 15.0513 9.70694 15.2933C10.7094 16.2958 11.947 16.672 13.1026 16.4752L13.6121 16.3885L13.9775 16.754L15.2087 17.9851L17.9849 15.2089L16.7327 13.9566L16.371 13.595ZM17.4398 13.2495C17.6802 11.7612 17.2002 10.2007 15.9999 9.00036C14.4978 7.49826 9.6116 6.56032 7.27161 6.18638C6.62768 6.08348 6.08299 6.62817 6.18589 7.2721C6.55983 9.61211 7.49778 14.4984 8.99984 16.0004C10.2138 17.2144 11.7713 17.7163 13.2704 17.4611L14.5016 18.6922C14.8921 19.0827 15.5253 19.0827 15.9158 18.6922L18.692 15.916C19.0826 15.5255 19.0826 14.8923 18.692 14.5018L17.4398 13.2495ZM12.8535 12.1464C13.0488 12.3417 13.0488 12.6583 12.8535 12.8536C12.6582 13.0488 12.3416 13.0488 12.1464 12.8536C11.9511 12.6583 11.9511 12.3417 12.1464 12.1464C12.3416 11.9512 12.6582 11.9512 12.8535 12.1464Z" fill="black" fill-opacity="0.9"/>
</svg>
