<svg width="831" height="56" viewBox="0 0 831 56" fill="none" xmlns="http://www.w3.org/2000/svg">
<rect x="0.5" y="0.5" width="830" height="55" rx="4.5" stroke="#9747FF" stroke-dasharray="10 5"/>
<path fill-rule="evenodd" clip-rule="evenodd" d="M28.5 25C28.5 24.7239 28.2761 24.5 28 24.5C27.7239 24.5 27.5 24.7239 27.5 25V27.5H25C24.7239 27.5 24.5 27.7239 24.5 28C24.5 28.2761 24.7239 28.5 25 28.5H27.5V31C27.5 31.2761 27.7239 31.5 28 31.5C28.2761 31.5 28.5 31.2761 28.5 31V28.5H31C31.2761 28.5 31.5 28.2761 31.5 28C31.5 27.7239 31.2761 27.5 31 27.5H28.5V25ZM34 31C34 31.2761 34.2239 31.5 34.5 31.5C34.7761 31.5 35 31.2761 35 31L35 28L35 25C35 24.7239 34.7761 24.5 34.5 24.5C34.2239 24.5 34 24.7239 34 25L34 28L34 31ZM25 34C24.7239 34 24.5 34.2239 24.5 34.5C24.5 34.7761 24.7239 35 25 35H31C31.2761 35 31.5 34.7761 31.5 34.5C31.5 34.2239 31.2761 34 31 34H25Z" fill="black" fill-opacity="0.3"/>
<path fill-rule="evenodd" clip-rule="evenodd" d="M25 21C24.7239 21 24.5 21.2239 24.5 21.5C24.5 21.7761 24.7239 22 25 22H31C31.2761 22 31.5 21.7761 31.5 21.5C31.5 21.2239 31.2761 21 31 21H25ZM22 25C22 24.7239 21.7761 24.5 21.5 24.5C21.2239 24.5 21 24.7239 21 25V28V31C21 31.2761 21.2239 31.5 21.5 31.5C21.7761 31.5 22 31.2761 22 31L22 28L22 25Z" fill="black" fill-opacity="0.9"/>
<path fill-rule="evenodd" clip-rule="evenodd" d="M52.5 24.5C52.7761 24.5 53 24.7239 53 25L53 28L53 31C53 31.2761 52.7761 31.5 52.5 31.5C52.2239 31.5 52 31.2761 52 31V28V25C52 24.7239 52.2239 24.5 52.5 24.5ZM65 31C65 31.2761 65.2239 31.5 65.5 31.5C65.7761 31.5 66 31.2761 66 31L66 28L66 25C66 24.7239 65.7761 24.5 65.5 24.5C65.2239 24.5 65 24.7239 65 25L65 28L65 31ZM55.5 34.5C55.5 34.2239 55.7239 34 56 34H62C62.2761 34 62.5 34.2239 62.5 34.5C62.5 34.7761 62.2761 35 62 35H56C55.7239 35 55.5 34.7761 55.5 34.5ZM57 27.5C57.2761 27.5 57.5 27.7239 57.5 28C57.5 28.2761 57.2761 28.5 57 28.5H56C55.7239 28.5 55.5 28.2761 55.5 28C55.5 27.7239 55.7239 27.5 56 27.5H57ZM61 28.5C60.7239 28.5 60.5 28.2761 60.5 28C60.5 27.7239 60.7239 27.5 61 27.5H62C62.2761 27.5 62.5 27.7239 62.5 28C62.5 28.2761 62.2761 28.5 62 28.5H61Z" fill="black" fill-opacity="0.3"/>
<path fill-rule="evenodd" clip-rule="evenodd" d="M56 21C55.7239 21 55.5 21.2239 55.5 21.5C55.5 21.7761 55.7239 22 56 22H62C62.2761 22 62.5 21.7761 62.5 21.5C62.5 21.2239 62.2761 21 62 21H56ZM59.5 25C59.5 24.7239 59.2761 24.5 59 24.5C58.7239 24.5 58.5 24.7239 58.5 25V31C58.5 31.2761 58.7239 31.5 59 31.5C59.2761 31.5 59.5 31.2761 59.5 31V25Z" fill="black" fill-opacity="0.9"/>
<path fill-rule="evenodd" clip-rule="evenodd" d="M84 25C84 24.7239 83.7761 24.5 83.5 24.5C83.2239 24.5 83 24.7239 83 25V28V31C83 31.2761 83.2239 31.5 83.5 31.5C83.7761 31.5 84 31.2761 84 31L84 28L84 25ZM90.5 25C90.5 24.7239 90.2761 24.5 90 24.5C89.7239 24.5 89.5 24.7239 89.5 25V27.5H87C86.7239 27.5 86.5 27.7239 86.5 28C86.5 28.2761 86.7239 28.5 87 28.5H89.5V31C89.5 31.2761 89.7239 31.5 90 31.5C90.2761 31.5 90.5 31.2761 90.5 31V28.5H93C93.2761 28.5 93.5 28.2761 93.5 28C93.5 27.7239 93.2761 27.5 93 27.5H90.5V25ZM87 34C86.7239 34 86.5 34.2239 86.5 34.5C86.5 34.7761 86.7239 35 87 35H93C93.2761 35 93.5 34.7761 93.5 34.5C93.5 34.2239 93.2761 34 93 34H87Z" fill="black" fill-opacity="0.3"/>
<path fill-rule="evenodd" clip-rule="evenodd" d="M87 21C86.7239 21 86.5 21.2239 86.5 21.5C86.5 21.7761 86.7239 22 87 22H93C93.2761 22 93.5 21.7761 93.5 21.5C93.5 21.2239 93.2761 21 93 21H87ZM96 31C96 31.2761 96.2239 31.5 96.5 31.5C96.7761 31.5 97 31.2761 97 31L97 28L97 25C97 24.7239 96.7761 24.5 96.5 24.5C96.2239 24.5 96 24.7239 96 25L96 28L96 31Z" fill="black" fill-opacity="0.9"/>
<path fill-rule="evenodd" clip-rule="evenodd" d="M121.5 25C121.5 24.7239 121.276 24.5 121 24.5C120.724 24.5 120.5 24.7239 120.5 25V27.5H118C117.724 27.5 117.5 27.7239 117.5 28C117.5 28.2761 117.724 28.5 118 28.5H120.5V31C120.5 31.2761 120.724 31.5 121 31.5C121.276 31.5 121.5 31.2761 121.5 31V28.5H124C124.276 28.5 124.5 28.2761 124.5 28C124.5 27.7239 124.276 27.5 124 27.5H121.5V25ZM118 34C117.724 34 117.5 34.2239 117.5 34.5C117.5 34.7761 117.724 35 118 35H124C124.276 35 124.5 34.7761 124.5 34.5C124.5 34.2239 124.276 34 124 34H118Z" fill="black" fill-opacity="0.3"/>
<path fill-rule="evenodd" clip-rule="evenodd" d="M118 21C117.724 21 117.5 21.2239 117.5 21.5C117.5 21.7761 117.724 22 118 22H124C124.276 22 124.5 21.7761 124.5 21.5C124.5 21.2239 124.276 21 124 21H118ZM114.5 24.5C114.776 24.5 115 24.7239 115 25L115 28L115 31C115 31.2761 114.776 31.5 114.5 31.5C114.224 31.5 114 31.2761 114 31V28V25C114 24.7239 114.224 24.5 114.5 24.5ZM127.5 31.5C127.224 31.5 127 31.2761 127 31L127 28L127 25C127 24.7239 127.224 24.5 127.5 24.5C127.776 24.5 128 24.7239 128 25L128 28L128 31C128 31.2761 127.776 31.5 127.5 31.5Z" fill="black" fill-opacity="0.9"/>
<path fill-rule="evenodd" clip-rule="evenodd" d="M152 24.5C152.276 24.5 152.5 24.7239 152.5 25V27.5H155C155.276 27.5 155.5 27.7239 155.5 28C155.5 28.2761 155.276 28.5 155 28.5H152.5V31C152.5 31.2761 152.276 31.5 152 31.5C151.724 31.5 151.5 31.2761 151.5 31V28.5H149C148.724 28.5 148.5 28.2761 148.5 28C148.5 27.7239 148.724 27.5 149 27.5H151.5V25C151.5 24.7239 151.724 24.5 152 24.5ZM152 34L155 34C155.276 34 155.5 34.2239 155.5 34.5C155.5 34.7761 155.276 35 155 35L152 35H149C148.724 35 148.5 34.7761 148.5 34.5C148.5 34.2239 148.724 34 149 34H152Z" fill="black" fill-opacity="0.3"/>
<path fill-rule="evenodd" clip-rule="evenodd" d="M155 22C155.276 22 155.5 21.7761 155.5 21.5C155.5 21.2239 155.276 21 155 21H152H149C148.724 21 148.5 21.2239 148.5 21.5C148.5 21.7761 148.724 22 149 22H152H155ZM159.854 28.3536C159.947 28.2598 160 28.1326 160 28C160 27.8674 159.947 27.7402 159.854 27.6464L157.854 25.6464C157.658 25.4512 157.342 25.4512 157.146 25.6464C156.951 25.8417 156.951 26.1583 157.146 26.3536L158.793 28L157.146 29.6464C156.951 29.8417 156.951 30.1583 157.146 30.3536C157.342 30.5488 157.658 30.5488 157.854 30.3536L159.854 28.3536ZM146.854 26.3536C147.049 26.1583 147.049 25.8417 146.854 25.6464C146.658 25.4512 146.342 25.4512 146.146 25.6464L144.146 27.6464C144.053 27.7402 144 27.8674 144 28C144 28.1326 144.053 28.2598 144.146 28.3536L146.146 30.3536C146.342 30.5488 146.658 30.5488 146.854 30.3536C147.049 30.1583 147.049 29.8417 146.854 29.6464L145.207 28L146.854 26.3536Z" fill="black" fill-opacity="0.9"/>
<path fill-rule="evenodd" clip-rule="evenodd" d="M180 21C179.724 21 179.5 21.2239 179.5 21.5C179.5 21.7761 179.724 22 180 22H186C186.276 22 186.5 21.7761 186.5 21.5C186.5 21.2239 186.276 21 186 21H180ZM189.5 31.5C189.224 31.5 189 31.2761 189 31L189 28L189 25C189 24.7239 189.224 24.5 189.5 24.5C189.776 24.5 190 24.7239 190 25L190 28L190 31C190 31.2761 189.776 31.5 189.5 31.5ZM179.5 34.5C179.5 34.2239 179.724 34 180 34H186C186.276 34 186.5 34.2239 186.5 34.5C186.5 34.7761 186.276 35 186 35H180C179.724 35 179.5 34.7761 179.5 34.5ZM183 24.5C183.276 24.5 183.5 24.7239 183.5 25V26C183.5 26.2761 183.276 26.5 183 26.5C182.724 26.5 182.5 26.2761 182.5 26V25C182.5 24.7239 182.724 24.5 183 24.5ZM183 29.5C183.276 29.5 183.5 29.7239 183.5 30V31C183.5 31.2761 183.276 31.5 183 31.5C182.724 31.5 182.5 31.2761 182.5 31V30C182.5 29.7239 182.724 29.5 183 29.5Z" fill="black" fill-opacity="0.3"/>
<path fill-rule="evenodd" clip-rule="evenodd" d="M177 25C177 24.7239 176.776 24.5 176.5 24.5C176.224 24.5 176 24.7239 176 25V28V31C176 31.2761 176.224 31.5 176.5 31.5C176.776 31.5 177 31.2761 177 31L177 28L177 25ZM186 28.5C186.276 28.5 186.5 28.2761 186.5 28C186.5 27.7239 186.276 27.5 186 27.5L180 27.5C179.724 27.5 179.5 27.7239 179.5 28C179.5 28.2761 179.724 28.5 180 28.5L186 28.5Z" fill="black" fill-opacity="0.9"/>
<path fill-rule="evenodd" clip-rule="evenodd" d="M211 21C210.724 21 210.5 21.2239 210.5 21.5C210.5 21.7761 210.724 22 211 22H214H217C217.276 22 217.5 21.7761 217.5 21.5C217.5 21.2239 217.276 21 217 21H214H211ZM208 25C208 24.7239 207.776 24.5 207.5 24.5C207.224 24.5 207 24.7239 207 25V28V31C207 31.2761 207.224 31.5 207.5 31.5C207.776 31.5 208 31.2761 208 31V28V25ZM221 25C221 24.7239 220.776 24.5 220.5 24.5C220.224 24.5 220 24.7239 220 25V28V31C220 31.2761 220.224 31.5 220.5 31.5C220.776 31.5 221 31.2761 221 31V28V25ZM211 34C210.724 34 210.5 34.2239 210.5 34.5C210.5 34.7761 210.724 35 211 35H214H217C217.276 35 217.5 34.7761 217.5 34.5C217.5 34.2239 217.276 34 217 34H214H211Z" fill="black" fill-opacity="0.3"/>
<path fill-rule="evenodd" clip-rule="evenodd" d="M214.5 25C214.5 24.7239 214.276 24.5 214 24.5C213.724 24.5 213.5 24.7239 213.5 25V27.5H211C210.724 27.5 210.5 27.7239 210.5 28C210.5 28.2761 210.724 28.5 211 28.5H213.5V31C213.5 31.2761 213.724 31.5 214 31.5C214.276 31.5 214.5 31.2761 214.5 31V28.5H217C217.276 28.5 217.5 28.2761 217.5 28C217.5 27.7239 217.276 27.5 217 27.5H214.5V25Z" fill="black" fill-opacity="0.9"/>
<path fill-rule="evenodd" clip-rule="evenodd" d="M242 21C241.724 21 241.5 21.2239 241.5 21.5C241.5 21.7761 241.724 22 242 22H248C248.276 22 248.5 21.7761 248.5 21.5C248.5 21.2239 248.276 21 248 21H242ZM238.5 24.5C238.776 24.5 239 24.7239 239 25L239 28L239 31C239 31.2761 238.776 31.5 238.5 31.5C238.224 31.5 238 31.2761 238 31V28V25C238 24.7239 238.224 24.5 238.5 24.5ZM241.5 34.5C241.5 34.2239 241.724 34 242 34H248C248.276 34 248.5 34.2239 248.5 34.5C248.5 34.7761 248.276 35 248 35H242C241.724 35 241.5 34.7761 241.5 34.5ZM245 24.5C245.276 24.5 245.5 24.7239 245.5 25V26C245.5 26.2761 245.276 26.5 245 26.5C244.724 26.5 244.5 26.2761 244.5 26V25C244.5 24.7239 244.724 24.5 245 24.5ZM245 29.5C245.276 29.5 245.5 29.7239 245.5 30V31C245.5 31.2761 245.276 31.5 245 31.5C244.724 31.5 244.5 31.2761 244.5 31V30C244.5 29.7239 244.724 29.5 245 29.5Z" fill="black" fill-opacity="0.3"/>
<path fill-rule="evenodd" clip-rule="evenodd" d="M251 31C251 31.2761 251.224 31.5 251.5 31.5C251.776 31.5 252 31.2761 252 31L252 28L252 25C252 24.7239 251.776 24.5 251.5 24.5C251.224 24.5 251 24.7239 251 25L251 28L251 31ZM248 28.5C248.276 28.5 248.5 28.2761 248.5 28C248.5 27.7239 248.276 27.5 248 27.5L242 27.5C241.724 27.5 241.5 27.7239 241.5 28C241.5 28.2761 241.724 28.5 242 28.5L248 28.5Z" fill="black" fill-opacity="0.9"/>
<path fill-rule="evenodd" clip-rule="evenodd" d="M273 21C272.724 21 272.5 21.2239 272.5 21.5C272.5 21.7761 272.724 22 273 22H279C279.276 22 279.5 21.7761 279.5 21.5C279.5 21.2239 279.276 21 279 21H273ZM272.5 34.5C272.5 34.2239 272.724 34 273 34H279C279.276 34 279.5 34.2239 279.5 34.5C279.5 34.7761 279.276 35 279 35H273C272.724 35 272.5 34.7761 272.5 34.5ZM276 24.5C276.276 24.5 276.5 24.7239 276.5 25V26C276.5 26.2761 276.276 26.5 276 26.5C275.724 26.5 275.5 26.2761 275.5 26V25C275.5 24.7239 275.724 24.5 276 24.5ZM276 29.5C276.276 29.5 276.5 29.7239 276.5 30V31C276.5 31.2761 276.276 31.5 276 31.5C275.724 31.5 275.5 31.2761 275.5 31V30C275.5 29.7239 275.724 29.5 276 29.5Z" fill="black" fill-opacity="0.3"/>
<path fill-rule="evenodd" clip-rule="evenodd" d="M269.5 24.5C269.776 24.5 270 24.7239 270 25L270 28L270 31C270 31.2761 269.776 31.5 269.5 31.5C269.224 31.5 269 31.2761 269 31V28V25C269 24.7239 269.224 24.5 269.5 24.5ZM282.5 31.5C282.224 31.5 282 31.2761 282 31L282 28L282 25C282 24.7239 282.224 24.5 282.5 24.5C282.776 24.5 283 24.7239 283 25L283 28L283 31C283 31.2761 282.776 31.5 282.5 31.5ZM279 28.5C279.276 28.5 279.5 28.2761 279.5 28C279.5 27.7239 279.276 27.5 279 27.5L273 27.5C272.724 27.5 272.5 27.7239 272.5 28C272.5 28.2761 272.724 28.5 273 28.5L279 28.5Z" fill="black" fill-opacity="0.9"/>
<path fill-rule="evenodd" clip-rule="evenodd" d="M310 22C310.276 22 310.5 21.7761 310.5 21.5C310.5 21.2239 310.276 21 310 21H307H304C303.724 21 303.5 21.2239 303.5 21.5C303.5 21.7761 303.724 22 304 22H307H310ZM307 34L310 34C310.276 34 310.5 34.2239 310.5 34.5C310.5 34.7761 310.276 35 310 35L307 35H304C303.724 35 303.5 34.7761 303.5 34.5C303.5 34.2239 303.724 34 304 34H307ZM307 24.5C307.276 24.5 307.5 24.7239 307.5 25V26C307.5 26.2761 307.276 26.5 307 26.5C306.724 26.5 306.5 26.2761 306.5 26V25C306.5 24.7239 306.724 24.5 307 24.5ZM307 29.5C307.276 29.5 307.5 29.7239 307.5 30V31C307.5 31.2761 307.276 31.5 307 31.5C306.724 31.5 306.5 31.2761 306.5 31V30C306.5 29.7239 306.724 29.5 307 29.5Z" fill="black" fill-opacity="0.3"/>
<path fill-rule="evenodd" clip-rule="evenodd" d="M314.854 28.3536C314.947 28.2598 315 28.1326 315 28C315 27.8674 314.947 27.7402 314.854 27.6464L312.854 25.6464C312.658 25.4512 312.342 25.4512 312.146 25.6464C311.951 25.8417 311.951 26.1583 312.146 26.3536L313.793 28L312.146 29.6464C311.951 29.8417 311.951 30.1583 312.146 30.3536C312.342 30.5488 312.658 30.5488 312.854 30.3536L314.854 28.3536ZM301.854 26.3536C302.049 26.1583 302.049 25.8417 301.854 25.6464C301.658 25.4512 301.342 25.4512 301.146 25.6464L299.146 27.6464C299.053 27.7402 299 27.8674 299 28C299 28.1326 299.053 28.2598 299.146 28.3536L301.146 30.3536C301.342 30.5488 301.658 30.5488 301.854 30.3536C302.049 30.1583 302.049 29.8417 301.854 29.6464L300.207 28L301.854 26.3536ZM310 28.5C310.276 28.5 310.5 28.2761 310.5 28C310.5 27.7239 310.276 27.5 310 27.5L304 27.5C303.724 27.5 303.5 27.7239 303.5 28C303.5 28.2761 303.724 28.5 304 28.5L310 28.5Z" fill="black" fill-opacity="0.9"/>
<path fill-rule="evenodd" clip-rule="evenodd" d="M335 21C334.724 21 334.5 21.2239 334.5 21.5C334.5 21.7761 334.724 22 335 22H341C341.276 22 341.5 21.7761 341.5 21.5C341.5 21.2239 341.276 21 341 21H335ZM338.5 25C338.5 24.7239 338.276 24.5 338 24.5C337.724 24.5 337.5 24.7239 337.5 25V27.5H335C334.724 27.5 334.5 27.7239 334.5 28C334.5 28.2761 334.724 28.5 335 28.5H337.5V31C337.5 31.2761 337.724 31.5 338 31.5C338.276 31.5 338.5 31.2761 338.5 31V28.5H341C341.276 28.5 341.5 28.2761 341.5 28C341.5 27.7239 341.276 27.5 341 27.5H338.5V25ZM344 31C344 31.2761 344.224 31.5 344.5 31.5C344.776 31.5 345 31.2761 345 31L345 28L345 25C345 24.7239 344.776 24.5 344.5 24.5C344.224 24.5 344 24.7239 344 25L344 28L344 31Z" fill="black" fill-opacity="0.3"/>
<path fill-rule="evenodd" clip-rule="evenodd" d="M332 25C332 24.7239 331.776 24.5 331.5 24.5C331.224 24.5 331 24.7239 331 25V28V31C331 31.2761 331.224 31.5 331.5 31.5C331.776 31.5 332 31.2761 332 31L332 28L332 25ZM335 34C334.724 34 334.5 34.2239 334.5 34.5C334.5 34.7761 334.724 35 335 35H341C341.276 35 341.5 34.7761 341.5 34.5C341.5 34.2239 341.276 34 341 34H335Z" fill="black" fill-opacity="0.9"/>
<path fill-rule="evenodd" clip-rule="evenodd" d="M365.5 21.5C365.5 21.2239 365.724 21 366 21H372C372.276 21 372.5 21.2239 372.5 21.5C372.5 21.7761 372.276 22 372 22H366C365.724 22 365.5 21.7761 365.5 21.5ZM362.5 24.5C362.776 24.5 363 24.7239 363 25L363 28L363 31C363 31.2761 362.776 31.5 362.5 31.5C362.224 31.5 362 31.2761 362 31V28V25C362 24.7239 362.224 24.5 362.5 24.5ZM375 31C375 31.2761 375.224 31.5 375.5 31.5C375.776 31.5 376 31.2761 376 31L376 28L376 25C376 24.7239 375.776 24.5 375.5 24.5C375.224 24.5 375 24.7239 375 25L375 28L375 31ZM367 27.5C367.276 27.5 367.5 27.7239 367.5 28C367.5 28.2761 367.276 28.5 367 28.5H366C365.724 28.5 365.5 28.2761 365.5 28C365.5 27.7239 365.724 27.5 366 27.5H367ZM371 28.5C370.724 28.5 370.5 28.2761 370.5 28C370.5 27.7239 370.724 27.5 371 27.5H372C372.276 27.5 372.5 27.7239 372.5 28C372.5 28.2761 372.276 28.5 372 28.5H371Z" fill="black" fill-opacity="0.3"/>
<path fill-rule="evenodd" clip-rule="evenodd" d="M369.5 25C369.5 24.7239 369.276 24.5 369 24.5C368.724 24.5 368.5 24.7239 368.5 25V31C368.5 31.2761 368.724 31.5 369 31.5C369.276 31.5 369.5 31.2761 369.5 31V25ZM366 34C365.724 34 365.5 34.2239 365.5 34.5C365.5 34.7761 365.724 35 366 35H372C372.276 35 372.5 34.7761 372.5 34.5C372.5 34.2239 372.276 34 372 34H366Z" fill="black" fill-opacity="0.9"/>
<path fill-rule="evenodd" clip-rule="evenodd" d="M397 21C396.724 21 396.5 21.2239 396.5 21.5C396.5 21.7761 396.724 22 397 22H403C403.276 22 403.5 21.7761 403.5 21.5C403.5 21.2239 403.276 21 403 21H397ZM394 25C394 24.7239 393.776 24.5 393.5 24.5C393.224 24.5 393 24.7239 393 25V28V31C393 31.2761 393.224 31.5 393.5 31.5C393.776 31.5 394 31.2761 394 31L394 28L394 25ZM400.5 25C400.5 24.7239 400.276 24.5 400 24.5C399.724 24.5 399.5 24.7239 399.5 25V27.5H397C396.724 27.5 396.5 27.7239 396.5 28C396.5 28.2761 396.724 28.5 397 28.5H399.5V31C399.5 31.2761 399.724 31.5 400 31.5C400.276 31.5 400.5 31.2761 400.5 31V28.5H403C403.276 28.5 403.5 28.2761 403.5 28C403.5 27.7239 403.276 27.5 403 27.5H400.5V25Z" fill="black" fill-opacity="0.3"/>
<path fill-rule="evenodd" clip-rule="evenodd" d="M406 31C406 31.2761 406.224 31.5 406.5 31.5C406.776 31.5 407 31.2761 407 31L407 28L407 25C407 24.7239 406.776 24.5 406.5 24.5C406.224 24.5 406 24.7239 406 25L406 28L406 31ZM397 34C396.724 34 396.5 34.2239 396.5 34.5C396.5 34.7761 396.724 35 397 35H403C403.276 35 403.5 34.7761 403.5 34.5C403.5 34.2239 403.276 34 403 34H397Z" fill="black" fill-opacity="0.9"/>
<path fill-rule="evenodd" clip-rule="evenodd" d="M428 21C427.724 21 427.5 21.2239 427.5 21.5C427.5 21.7761 427.724 22 428 22H434C434.276 22 434.5 21.7761 434.5 21.5C434.5 21.2239 434.276 21 434 21H428ZM431.5 25C431.5 24.7239 431.276 24.5 431 24.5C430.724 24.5 430.5 24.7239 430.5 25V27.5H428C427.724 27.5 427.5 27.7239 427.5 28C427.5 28.2761 427.724 28.5 428 28.5H430.5V31C430.5 31.2761 430.724 31.5 431 31.5C431.276 31.5 431.5 31.2761 431.5 31V28.5H434C434.276 28.5 434.5 28.2761 434.5 28C434.5 27.7239 434.276 27.5 434 27.5H431.5V25Z" fill="black" fill-opacity="0.3"/>
<path fill-rule="evenodd" clip-rule="evenodd" d="M424.5 24.5C424.776 24.5 425 24.7239 425 25L425 28L425 31C425 31.2761 424.776 31.5 424.5 31.5C424.224 31.5 424 31.2761 424 31V28V25C424 24.7239 424.224 24.5 424.5 24.5ZM437.5 31.5C437.224 31.5 437 31.2761 437 31L437 28L437 25C437 24.7239 437.224 24.5 437.5 24.5C437.776 24.5 438 24.7239 438 25L438 28L438 31C438 31.2761 437.776 31.5 437.5 31.5ZM428 34C427.724 34 427.5 34.2239 427.5 34.5C427.5 34.7761 427.724 35 428 35H434C434.276 35 434.5 34.7761 434.5 34.5C434.5 34.2239 434.276 34 434 34H428Z" fill="black" fill-opacity="0.9"/>
<path fill-rule="evenodd" clip-rule="evenodd" d="M465.5 21.5C465.5 21.7761 465.276 22 465 22H462H459C458.724 22 458.5 21.7761 458.5 21.5C458.5 21.2239 458.724 21 459 21H462H465C465.276 21 465.5 21.2239 465.5 21.5ZM462 24.5C462.276 24.5 462.5 24.7239 462.5 25V27.5H465C465.276 27.5 465.5 27.7239 465.5 28C465.5 28.2761 465.276 28.5 465 28.5H462.5V31C462.5 31.2761 462.276 31.5 462 31.5C461.724 31.5 461.5 31.2761 461.5 31V28.5H459C458.724 28.5 458.5 28.2761 458.5 28C458.5 27.7239 458.724 27.5 459 27.5H461.5V25C461.5 24.7239 461.724 24.5 462 24.5Z" fill="black" fill-opacity="0.3"/>
<path fill-rule="evenodd" clip-rule="evenodd" d="M469.854 28.3536C469.947 28.2598 470 28.1326 470 28C470 27.8674 469.947 27.7402 469.854 27.6464L467.854 25.6464C467.658 25.4512 467.342 25.4512 467.146 25.6464C466.951 25.8417 466.951 26.1583 467.146 26.3536L468.793 28L467.146 29.6464C466.951 29.8417 466.951 30.1583 467.146 30.3536C467.342 30.5488 467.658 30.5488 467.854 30.3536L469.854 28.3536ZM456.854 26.3536C457.049 26.1583 457.049 25.8417 456.854 25.6464C456.658 25.4512 456.342 25.4512 456.146 25.6464L454.146 27.6464C454.053 27.7402 454 27.8674 454 28C454 28.1326 454.053 28.2598 454.146 28.3536L456.146 30.3536C456.342 30.5488 456.658 30.5488 456.854 30.3536C457.049 30.1583 457.049 29.8417 456.854 29.6464L455.207 28L456.854 26.3536ZM465 34L462 34H459C458.724 34 458.5 34.2239 458.5 34.5C458.5 34.7761 458.724 35 459 35H462L465 35C465.276 35 465.5 34.7761 465.5 34.5C465.5 34.2239 465.276 34 465 34Z" fill="black" fill-opacity="0.9"/>
<path fill-rule="evenodd" clip-rule="evenodd" d="M493 24.5C493.276 24.5 493.5 24.7239 493.5 25V27.5H496C496.276 27.5 496.5 27.7239 496.5 28C496.5 28.2761 496.276 28.5 496 28.5H493.5V31C493.5 31.2761 493.276 31.5 493 31.5C492.724 31.5 492.5 31.2761 492.5 31V28.5H490C489.724 28.5 489.5 28.2761 489.5 28C489.5 27.7239 489.724 27.5 490 27.5H492.5V25C492.5 24.7239 492.724 24.5 493 24.5ZM499.5 31.5C499.224 31.5 499 31.2761 499 31L499 28L499 25C499 24.7239 499.224 24.5 499.5 24.5C499.776 24.5 500 24.7239 500 25L500 28L500 31C500 31.2761 499.776 31.5 499.5 31.5Z" fill="black" fill-opacity="0.3"/>
<path fill-rule="evenodd" clip-rule="evenodd" d="M496 22C496.276 22 496.5 21.7761 496.5 21.5C496.5 21.2239 496.276 21 496 21H493H490C489.724 21 489.5 21.2239 489.5 21.5C489.5 21.7761 489.724 22 490 22H493H496ZM486.5 24.5C486.776 24.5 487 24.7239 487 25V28V31C487 31.2761 486.776 31.5 486.5 31.5C486.224 31.5 486 31.2761 486 31V28V25C486 24.7239 486.224 24.5 486.5 24.5ZM496.5 34.5C496.5 34.7761 496.276 35 496 35H493H490C489.724 35 489.5 34.7761 489.5 34.5C489.5 34.2239 489.724 34 490 34H493H496C496.276 34 496.5 34.2239 496.5 34.5Z" fill="black" fill-opacity="0.9"/>
<path fill-rule="evenodd" clip-rule="evenodd" d="M518 25C518 24.7239 517.776 24.5 517.5 24.5C517.224 24.5 517 24.7239 517 25V28V31C517 31.2761 517.224 31.5 517.5 31.5C517.776 31.5 518 31.2761 518 31V28V25ZM530.5 31.5C530.224 31.5 530 31.2761 530 31L530 28L530 25C530 24.7239 530.224 24.5 530.5 24.5C530.776 24.5 531 24.7239 531 25L531 28L531 31C531 31.2761 530.776 31.5 530.5 31.5ZM522 27.5C522.276 27.5 522.5 27.7239 522.5 28C522.5 28.2761 522.276 28.5 522 28.5H521C520.724 28.5 520.5 28.2761 520.5 28C520.5 27.7239 520.724 27.5 521 27.5H522ZM526 28.5C525.724 28.5 525.5 28.2761 525.5 28C525.5 27.7239 525.724 27.5 526 27.5H527C527.276 27.5 527.5 27.7239 527.5 28C527.5 28.2761 527.276 28.5 527 28.5H526Z" fill="black" fill-opacity="0.3"/>
<path fill-rule="evenodd" clip-rule="evenodd" d="M527.5 21.5C527.5 21.7761 527.276 22 527 22H524H521C520.724 22 520.5 21.7761 520.5 21.5C520.5 21.2239 520.724 21 521 21H524H527C527.276 21 527.5 21.2239 527.5 21.5ZM527.5 34.5C527.5 34.7761 527.276 35 527 35H524H521C520.724 35 520.5 34.7761 520.5 34.5C520.5 34.2239 520.724 34 521 34H524H527C527.276 34 527.5 34.2239 527.5 34.5ZM524.5 25C524.5 24.7239 524.276 24.5 524 24.5C523.724 24.5 523.5 24.7239 523.5 25V31C523.5 31.2761 523.724 31.5 524 31.5C524.276 31.5 524.5 31.2761 524.5 31V25Z" fill="black" fill-opacity="0.9"/>
<path fill-rule="evenodd" clip-rule="evenodd" d="M548.5 24.5C548.776 24.5 549 24.7239 549 25V28V31C549 31.2761 548.776 31.5 548.5 31.5C548.224 31.5 548 31.2761 548 31V28V25C548 24.7239 548.224 24.5 548.5 24.5ZM555 24.5C555.276 24.5 555.5 24.7239 555.5 25V27.5H558C558.276 27.5 558.5 27.7239 558.5 28C558.5 28.2761 558.276 28.5 558 28.5H555.5V31C555.5 31.2761 555.276 31.5 555 31.5C554.724 31.5 554.5 31.2761 554.5 31V28.5H552C551.724 28.5 551.5 28.2761 551.5 28C551.5 27.7239 551.724 27.5 552 27.5H554.5V25C554.5 24.7239 554.724 24.5 555 24.5Z" fill="black" fill-opacity="0.3"/>
<path fill-rule="evenodd" clip-rule="evenodd" d="M558.5 21.5C558.5 21.7761 558.276 22 558 22H555H552C551.724 22 551.5 21.7761 551.5 21.5C551.5 21.2239 551.724 21 552 21H555H558C558.276 21 558.5 21.2239 558.5 21.5ZM558.5 34.5C558.5 34.7761 558.276 35 558 35H555H552C551.724 35 551.5 34.7761 551.5 34.5C551.5 34.2239 551.724 34 552 34H555H558C558.276 34 558.5 34.2239 558.5 34.5ZM561 31C561 31.2761 561.224 31.5 561.5 31.5C561.776 31.5 562 31.2761 562 31L562 28L562 25C562 24.7239 561.776 24.5 561.5 24.5C561.224 24.5 561 24.7239 561 25L561 28L561 31Z" fill="black" fill-opacity="0.9"/>
<path fill-rule="evenodd" clip-rule="evenodd" d="M586 24.5C586.276 24.5 586.5 24.7239 586.5 25V27.5H589C589.276 27.5 589.5 27.7239 589.5 28C589.5 28.2761 589.276 28.5 589 28.5H586.5V31C586.5 31.2761 586.276 31.5 586 31.5C585.724 31.5 585.5 31.2761 585.5 31V28.5H583C582.724 28.5 582.5 28.2761 582.5 28C582.5 27.7239 582.724 27.5 583 27.5H585.5V25C585.5 24.7239 585.724 24.5 586 24.5Z" fill="black" fill-opacity="0.3"/>
<path fill-rule="evenodd" clip-rule="evenodd" d="M582.5 21.5C582.5 21.2239 582.724 21 583 21H586H589C589.276 21 589.5 21.2239 589.5 21.5C589.5 21.7761 589.276 22 589 22H586H583C582.724 22 582.5 21.7761 582.5 21.5ZM579.5 24.5C579.776 24.5 580 24.7239 580 25V28V31C580 31.2761 579.776 31.5 579.5 31.5C579.224 31.5 579 31.2761 579 31L579 28L579 25C579 24.7239 579.224 24.5 579.5 24.5ZM592.5 24.5C592.776 24.5 593 24.7239 593 25V28V31C593 31.2761 592.776 31.5 592.5 31.5C592.224 31.5 592 31.2761 592 31V28V25C592 24.7239 592.224 24.5 592.5 24.5ZM582.5 34.5C582.5 34.2239 582.724 34 583 34H586H589C589.276 34 589.5 34.2239 589.5 34.5C589.5 34.7761 589.276 35 589 35H586H583C582.724 35 582.5 34.7761 582.5 34.5Z" fill="black" fill-opacity="0.9"/>
<path fill-rule="evenodd" clip-rule="evenodd" d="M617 24.5C617.276 24.5 617.5 24.7239 617.5 25V27.5H620C620.276 27.5 620.5 27.7239 620.5 28C620.5 28.2761 620.276 28.5 620 28.5H617.5V31C617.5 31.2761 617.276 31.5 617 31.5C616.724 31.5 616.5 31.2761 616.5 31V28.5H614C613.724 28.5 613.5 28.2761 613.5 28C613.5 27.7239 613.724 27.5 614 27.5H616.5V25C616.5 24.7239 616.724 24.5 617 24.5Z" fill="black" fill-opacity="0.3"/>
<path fill-rule="evenodd" clip-rule="evenodd" d="M620.5 21.5C620.5 21.7761 620.276 22 620 22H617H614C613.724 22 613.5 21.7761 613.5 21.5C613.5 21.2239 613.724 21 614 21H617H620C620.276 21 620.5 21.2239 620.5 21.5ZM617 34L620 34C620.276 34 620.5 34.2239 620.5 34.5C620.5 34.7761 620.276 35 620 35L617 35H614C613.724 35 613.5 34.7761 613.5 34.5C613.5 34.2239 613.724 34 614 34H617ZM624.854 28.3536C624.947 28.2598 625 28.1326 625 28C625 27.8674 624.947 27.7402 624.854 27.6464L622.854 25.6464C622.658 25.4512 622.342 25.4512 622.146 25.6464C621.951 25.8417 621.951 26.1583 622.146 26.3536L623.793 28L622.146 29.6464C621.951 29.8417 621.951 30.1583 622.146 30.3536C622.342 30.5488 622.658 30.5488 622.854 30.3536L624.854 28.3536ZM611.854 26.3536C612.049 26.1583 612.049 25.8417 611.854 25.6464C611.658 25.4512 611.342 25.4512 611.146 25.6464L609.146 27.6464C609.053 27.7402 609 27.8674 609 28C609 28.1326 609.053 28.2598 609.146 28.3536L611.146 30.3536C611.342 30.5488 611.658 30.5488 611.854 30.3536C612.049 30.1583 612.049 29.8417 611.854 29.6464L610.207 28L611.854 26.3536Z" fill="black" fill-opacity="0.9"/>
<path fill-rule="evenodd" clip-rule="evenodd" d="M648 24.5C648.276 24.5 648.5 24.7239 648.5 25V27.5H651C651.276 27.5 651.5 27.7239 651.5 28C651.5 28.2761 651.276 28.5 651 28.5H648.5V31C648.5 31.2761 648.276 31.5 648 31.5C647.724 31.5 647.5 31.2761 647.5 31V28.5H645C644.724 28.5 644.5 28.2761 644.5 28C644.5 27.7239 644.724 27.5 645 27.5H647.5V25C647.5 24.7239 647.724 24.5 648 24.5ZM654.5 31.5C654.224 31.5 654 31.2761 654 31L654 28L654 25C654 24.7239 654.224 24.5 654.5 24.5C654.776 24.5 655 24.7239 655 25L655 28L655 31C655 31.2761 654.776 31.5 654.5 31.5Z" fill="black" fill-opacity="0.3"/>
<path fill-rule="evenodd" clip-rule="evenodd" d="M648.354 20.1464C648.158 19.9512 647.842 19.9512 647.646 20.1464L645.646 22.1464C645.451 22.3417 645.451 22.6583 645.646 22.8536C645.842 23.0488 646.158 23.0488 646.354 22.8536L648 21.2071L649.646 22.8536C649.842 23.0488 650.158 23.0488 650.354 22.8536C650.549 22.6583 650.549 22.3417 650.354 22.1464L648.354 20.1464ZM646.354 33.1464C646.158 32.9512 645.842 32.9512 645.646 33.1464C645.451 33.3417 645.451 33.6583 645.646 33.8536L647.646 35.8536C647.842 36.0488 648.158 36.0488 648.354 35.8536L650.354 33.8536C650.549 33.6583 650.549 33.3417 650.354 33.1464C650.158 32.9512 649.842 32.9512 649.646 33.1464L648 34.7929L646.354 33.1464ZM642 25C642 24.7239 641.776 24.5 641.5 24.5C641.224 24.5 641 24.7239 641 25V28V31C641 31.2761 641.224 31.5 641.5 31.5C641.776 31.5 642 31.2761 642 31L642 28L642 25Z" fill="black" fill-opacity="0.9"/>
<path fill-rule="evenodd" clip-rule="evenodd" d="M672.5 24.5C672.776 24.5 673 24.7239 673 25V31C673 31.2761 672.776 31.5 672.5 31.5C672.224 31.5 672 31.2761 672 31V25C672 24.7239 672.224 24.5 672.5 24.5ZM685.5 24.5C685.776 24.5 686 24.7239 686 25V31C686 31.2761 685.776 31.5 685.5 31.5C685.224 31.5 685 31.2761 685 31V25C685 24.7239 685.224 24.5 685.5 24.5ZM677 27.5C677.276 27.5 677.5 27.7239 677.5 28C677.5 28.2761 677.276 28.5 677 28.5H676C675.724 28.5 675.5 28.2761 675.5 28C675.5 27.7239 675.724 27.5 676 27.5H677ZM681 28.5C680.724 28.5 680.5 28.2761 680.5 28C680.5 27.7239 680.724 27.5 681 27.5H682C682.276 27.5 682.5 27.7239 682.5 28C682.5 28.2761 682.276 28.5 682 28.5H681Z" fill="black" fill-opacity="0.3"/>
<path fill-rule="evenodd" clip-rule="evenodd" d="M679.354 20.1464C679.158 19.9512 678.842 19.9512 678.646 20.1464L676.646 22.1464C676.451 22.3417 676.451 22.6583 676.646 22.8536C676.842 23.0488 677.158 23.0488 677.354 22.8536L679 21.2071L680.646 22.8536C680.842 23.0488 681.158 23.0488 681.354 22.8536C681.549 22.6583 681.549 22.3417 681.354 22.1464L679.354 20.1464ZM677.354 33.1464C677.158 32.9512 676.842 32.9512 676.646 33.1464C676.451 33.3417 676.451 33.6583 676.646 33.8536L678.646 35.8536C678.842 36.0488 679.158 36.0488 679.354 35.8536L681.354 33.8536C681.549 33.6583 681.549 33.3417 681.354 33.1464C681.158 32.9512 680.842 32.9512 680.646 33.1464L679 34.7929L677.354 33.1464ZM679.5 31V25C679.5 24.7239 679.276 24.5 679 24.5C678.724 24.5 678.5 24.7239 678.5 25V31C678.5 31.2761 678.724 31.5 679 31.5C679.276 31.5 679.5 31.2761 679.5 31Z" fill="black" fill-opacity="0.9"/>
<path fill-rule="evenodd" clip-rule="evenodd" d="M703.5 24.5C703.776 24.5 704 24.7239 704 25L704 28L704 31C704 31.2761 703.776 31.5 703.5 31.5C703.224 31.5 703 31.2761 703 31V28V25C703 24.7239 703.224 24.5 703.5 24.5ZM710 24.5C710.276 24.5 710.5 24.7239 710.5 25V27.5H713C713.276 27.5 713.5 27.7239 713.5 28C713.5 28.2761 713.276 28.5 713 28.5H710.5V31C710.5 31.2761 710.276 31.5 710 31.5C709.724 31.5 709.5 31.2761 709.5 31V28.5H707C706.724 28.5 706.5 28.2761 706.5 28C706.5 27.7239 706.724 27.5 707 27.5H709.5V25C709.5 24.7239 709.724 24.5 710 24.5Z" fill="black" fill-opacity="0.3"/>
<path fill-rule="evenodd" clip-rule="evenodd" d="M710.354 20.1464C710.158 19.9512 709.842 19.9512 709.646 20.1464L707.646 22.1464C707.451 22.3417 707.451 22.6583 707.646 22.8536C707.842 23.0488 708.158 23.0488 708.354 22.8536L710 21.2071L711.646 22.8536C711.842 23.0488 712.158 23.0488 712.354 22.8536C712.549 22.6583 712.549 22.3417 712.354 22.1464L710.354 20.1464ZM708.354 33.1464C708.158 32.9512 707.842 32.9512 707.646 33.1464C707.451 33.3417 707.451 33.6583 707.646 33.8536L709.646 35.8536C709.842 36.0488 710.158 36.0488 710.354 35.8536L712.354 33.8536C712.549 33.6583 712.549 33.3417 712.354 33.1464C712.158 32.9512 711.842 32.9512 711.646 33.1464L710 34.7929L708.354 33.1464ZM716 31C716 31.2761 716.224 31.5 716.5 31.5C716.776 31.5 717 31.2761 717 31L717 28L717 25C717 24.7239 716.776 24.5 716.5 24.5C716.224 24.5 716 24.7239 716 25L716 28L716 31Z" fill="black" fill-opacity="0.9"/>
<path fill-rule="evenodd" clip-rule="evenodd" d="M741 24.5C741.276 24.5 741.5 24.7239 741.5 25V27.5H744C744.276 27.5 744.5 27.7239 744.5 28C744.5 28.2761 744.276 28.5 744 28.5H741.5V31C741.5 31.2761 741.276 31.5 741 31.5C740.724 31.5 740.5 31.2761 740.5 31V28.5H738C737.724 28.5 737.5 28.2761 737.5 28C737.5 27.7239 737.724 27.5 738 27.5H740.5V25C740.5 24.7239 740.724 24.5 741 24.5Z" fill="black" fill-opacity="0.3"/>
<path fill-rule="evenodd" clip-rule="evenodd" d="M741.354 20.1464C741.158 19.9512 740.842 19.9512 740.646 20.1464L738.646 22.1464C738.451 22.3417 738.451 22.6583 738.646 22.8536C738.842 23.0488 739.158 23.0488 739.354 22.8536L741 21.2071L742.646 22.8536C742.842 23.0488 743.158 23.0488 743.354 22.8536C743.549 22.6583 743.549 22.3417 743.354 22.1464L741.354 20.1464ZM739.354 33.1464C739.158 32.9512 738.842 32.9512 738.646 33.1464C738.451 33.3417 738.451 33.6583 738.646 33.8536L740.646 35.8536C740.842 36.0488 741.158 36.0488 741.354 35.8536L743.354 33.8536C743.549 33.6583 743.549 33.3417 743.354 33.1464C743.158 32.9512 742.842 32.9512 742.646 33.1464L741 34.7929L739.354 33.1464ZM734.5 24.5C734.776 24.5 735 24.7239 735 25L735 28L735 31C735 31.2761 734.776 31.5 734.5 31.5C734.224 31.5 734 31.2761 734 31V28V25C734 24.7239 734.224 24.5 734.5 24.5ZM747.5 31.5C747.224 31.5 747 31.2761 747 31L747 28L747 25C747 24.7239 747.224 24.5 747.5 24.5C747.776 24.5 748 24.7239 748 25L748 28L748 31C748 31.2761 747.776 31.5 747.5 31.5Z" fill="black" fill-opacity="0.9"/>
<path fill-rule="evenodd" clip-rule="evenodd" d="M772.5 25C772.5 24.7239 772.276 24.5 772 24.5C771.724 24.5 771.5 24.7239 771.5 25V27.5H769C768.724 27.5 768.5 27.7239 768.5 28C768.5 28.2761 768.724 28.5 769 28.5H771.5V31C771.5 31.2761 771.724 31.5 772 31.5C772.276 31.5 772.5 31.2761 772.5 31V28.5H775C775.276 28.5 775.5 28.2761 775.5 28C775.5 27.7239 775.276 27.5 775 27.5H772.5V25Z" fill="black" fill-opacity="0.3"/>
<path fill-rule="evenodd" clip-rule="evenodd" d="M772.354 20.1464C772.158 19.9512 771.842 19.9512 771.646 20.1464L769.646 22.1464C769.451 22.3417 769.451 22.6583 769.646 22.8536C769.842 23.0488 770.158 23.0488 770.354 22.8536L772 21.2071L773.646 22.8536C773.842 23.0488 774.158 23.0488 774.354 22.8536C774.549 22.6583 774.549 22.3417 774.354 22.1464L772.354 20.1464ZM770.354 33.1464C770.158 32.9512 769.842 32.9512 769.646 33.1464C769.451 33.3417 769.451 33.6583 769.646 33.8536L771.646 35.8536C771.842 36.0488 772.158 36.0488 772.354 35.8536L774.354 33.8536C774.549 33.6583 774.549 33.3417 774.354 33.1464C774.158 32.9512 773.842 32.9512 773.646 33.1464L772 34.7929L770.354 33.1464ZM779.854 28.3536C779.947 28.2598 780 28.1326 780 28C780 27.8674 779.947 27.7402 779.854 27.6464L777.854 25.6464C777.658 25.4512 777.342 25.4512 777.146 25.6464C776.951 25.8417 776.951 26.1583 777.146 26.3536L778.793 28L777.146 29.6464C776.951 29.8417 776.951 30.1583 777.146 30.3536C777.342 30.5488 777.658 30.5488 777.854 30.3536L779.854 28.3536ZM766.854 26.3536C767.049 26.1583 767.049 25.8417 766.854 25.6464C766.658 25.4512 766.342 25.4512 766.146 25.6464L764.146 27.6464C764.053 27.7402 764 27.8674 764 28C764 28.1326 764.053 28.2598 764.146 28.3536L766.146 30.3536C766.342 30.5488 766.658 30.5488 766.854 30.3536C767.049 30.1583 767.049 29.8417 766.854 29.6464L765.207 28L766.854 26.3536Z" fill="black" fill-opacity="0.9"/>
<path fill-rule="evenodd" clip-rule="evenodd" d="M799.5 21.5C799.5 21.2239 799.724 21 800 21H806C806.276 21 806.5 21.2239 806.5 21.5C806.5 21.7761 806.276 22 806 22H800C799.724 22 799.5 21.7761 799.5 21.5ZM797 25C797 24.7239 796.776 24.5 796.5 24.5C796.224 24.5 796 24.7239 796 25V28V31C796 31.2761 796.224 31.5 796.5 31.5C796.776 31.5 797 31.2761 797 31L797 28L797 25ZM809.5 31.5C809.224 31.5 809 31.2761 809 31L809 28L809 25C809 24.7239 809.224 24.5 809.5 24.5C809.776 24.5 810 24.7239 810 25L810 28L810 31C810 31.2761 809.776 31.5 809.5 31.5ZM803 24.5C803.276 24.5 803.5 24.7239 803.5 25V27.5H806C806.276 27.5 806.5 27.7239 806.5 28C806.5 28.2761 806.276 28.5 806 28.5H803.5V31C803.5 31.2761 803.276 31.5 803 31.5C802.724 31.5 802.5 31.2761 802.5 31V28.5H800C799.724 28.5 799.5 28.2761 799.5 28C799.5 27.7239 799.724 27.5 800 27.5H802.5V25C802.5 24.7239 802.724 24.5 803 24.5ZM800 34C799.724 34 799.5 34.2239 799.5 34.5C799.5 34.7761 799.724 35 800 35H806C806.276 35 806.5 34.7761 806.5 34.5C806.5 34.2239 806.276 34 806 34H800Z" fill="black" fill-opacity="0.9"/>
</svg>
