<svg width="24" height="24" viewBox="0 0 24 24" fill="none" xmlns="http://www.w3.org/2000/svg">
<path fill-rule="evenodd" clip-rule="evenodd" d="M6.74643 15.0816C6.96847 15.0816 7.16629 14.9414 7.23975 14.7318L7.86444 12.95H10.9573L11.5808 14.7315C11.6542 14.9412 11.8521 15.0816 12.0743 15.0816C12.4371 15.0816 12.6896 14.7212 12.5657 14.3803L10.192 7.84635C10.0729 7.51825 9.76109 7.2998 9.41201 7.2998C9.06306 7.2998 8.75138 7.51809 8.63209 7.84601L6.25517 14.3802C6.13114 14.7211 6.38363 15.0816 6.74643 15.0816ZM10.6381 12.0381L9.45258 8.6508C9.44657 8.63362 9.43035 8.62211 9.41213 8.62211C9.39393 8.62211 9.37771 8.63361 9.37169 8.65078L8.18415 12.0381H10.6381ZM14.5085 17.2171C14.8302 17.3336 15.2152 17.3919 15.6636 17.3919C16.1449 17.3919 16.5806 17.3159 16.9707 17.1639C17.0907 17.1171 17.2031 17.0624 17.3078 16.9998H17.5C17.7761 16.9998 18 16.776 18 16.4998C18 16.4445 17.991 16.3913 17.9744 16.3415C18.1539 16.0429 18.2436 15.6724 18.2436 15.2298V9.74112C18.2436 9.46726 18.0216 9.24526 17.7477 9.24526H17.7192C17.4611 9.24526 17.2519 9.45451 17.2519 9.71262V10.1262C17.2519 10.1559 17.2278 10.18 17.198 10.18C17.1795 10.18 17.1624 10.1705 17.1523 10.1549C17.0852 10.0507 16.9943 9.92477 16.8795 9.77722C16.7579 9.61763 16.5857 9.47704 16.3627 9.35545C16.1398 9.23133 15.8422 9.16927 15.4698 9.16927C14.9885 9.16927 14.5617 9.28959 14.1893 9.53024C13.8169 9.77089 13.5256 10.1141 13.3154 10.56C13.1051 11.0033 13 11.5289 13 12.1368C13 12.7499 13.1077 13.2692 13.323 13.6947C13.5383 14.1203 13.8309 14.4433 14.2007 14.6637C14.5731 14.8815 14.9923 14.9904 15.4584 14.9904C15.8257 14.9904 16.1208 14.9334 16.3437 14.8194C16.5692 14.7029 16.744 14.5687 16.8681 14.4167C16.9837 14.2728 17.0741 14.1453 17.1391 14.0344C17.1479 14.0194 17.1638 14.0101 17.1811 14.0101C17.2076 14.0101 17.2291 14.0316 17.2291 14.0581V15.1766C17.2291 15.5172 17.1523 15.7916 16.9988 15.9998H14.3136C14.1382 15.844 13.8824 15.7968 13.6733 15.9089C13.6272 15.9336 13.5863 15.9645 13.5515 15.9998H6.5C6.22386 15.9998 6 16.2237 6 16.4998C6 16.776 6.22386 16.9998 6.5 16.9998H14.0372C14.1781 17.0833 14.3352 17.1557 14.5085 17.2171ZM16.5147 13.8809C16.2792 14.038 15.9891 14.1165 15.6446 14.1165C15.2874 14.1165 14.9885 14.0329 14.7479 13.8657C14.5098 13.696 14.3286 13.4617 14.2045 13.1628C14.0829 12.8639 14.0221 12.5168 14.0221 12.1216C14.0221 11.7366 14.0816 11.3883 14.2007 11.0767C14.3223 10.7651 14.5034 10.5169 14.7441 10.332C14.9847 10.1471 15.2849 10.0546 15.6446 10.0546C15.9916 10.0546 16.2842 10.1433 16.5223 10.3206C16.7604 10.4954 16.9403 10.7373 17.0619 11.0463C17.1835 11.3554 17.2443 11.7138 17.2443 12.1216C17.2443 12.5371 17.1822 12.8943 17.0581 13.1932C16.934 13.4921 16.7528 13.7213 16.5147 13.8809Z" fill="black" fill-opacity="0.9"/>
</svg>
