<svg width="24" height="24" viewBox="0 0 24 24" fill="none" xmlns="http://www.w3.org/2000/svg">
<path fill-rule="evenodd" clip-rule="evenodd" d="M13.6426 10.0001L13.4131 9.31967L12 5.12944L10.5869 9.31967L10.3574 10.0001H9.63929H4.94572L8.78909 12.9494L9.34994 13.3798L9.13126 14.0521L7.7248 18.3759L11.4114 15.6917L12 15.2631L12.5886 15.6917L16.2751 18.3759L14.8687 14.0521L14.65 13.3798L15.2108 12.9494L19.0542 10.0001H14.3606H13.6426ZM9.63929 9.00011H4.65115C3.79125 9.00011 3.42106 10.0906 4.10324 10.6141L8.18031 13.7428L6.67842 18.36C6.40854 19.1896 7.35872 19.8795 8.06404 19.3659L12 16.5001L15.9359 19.3659C16.6412 19.8795 17.5914 19.1896 17.3215 18.36L15.8196 13.7428L19.8967 10.6141C20.5789 10.0906 20.2087 9.00011 19.3488 9.00011H14.3606L12.8528 4.5289C12.5774 3.71237 11.4225 3.71237 11.1472 4.5289L9.63929 9.00011Z" fill="black" fill-opacity="0.9"/>
</svg>
