<svg width="24" height="24" viewBox="0 0 24 24" fill="none" xmlns="http://www.w3.org/2000/svg">
<path fill-rule="evenodd" clip-rule="evenodd" d="M9.5 5.00012C9.77614 5.00012 10 5.22398 10 5.50012V6.00012H17V5.50012C17 5.22398 17.2239 5.00012 17.5 5.00012C17.7761 5.00012 18 5.22398 18 5.50012V6.50012V7.50012C18 7.77626 17.7761 8.00012 17.5 8.00012C17.2239 8.00012 17 7.77626 17 7.50012V7.00012H10V7.50012C10 7.77626 9.77614 8.00012 9.5 8.00012C9.22386 8.00012 9 7.77626 9 7.50012V6.50012V5.50012C9 5.22398 9.22386 5.00012 9.5 5.00012ZM8 9.50012C8 9.77626 7.77614 10.0001 7.5 10.0001H7L7 17.0001H7.5C7.77614 17.0001 8 17.224 8 17.5001C8 17.7763 7.77614 18.0001 7.5 18.0001H6.5H5.5C5.22386 18.0001 5 17.7763 5 17.5001C5 17.224 5.22386 17.0001 5.5 17.0001H6L6 10.0001H5.5C5.22386 10.0001 5 9.77626 5 9.50012C5 9.22398 5.22386 9.00012 5.5 9.00012H6.5H7.5C7.77614 9.00012 8 9.22398 8 9.50012ZM16 9.50012C16 9.77626 16.2239 10.0001 16.5 10.0001C16.7761 10.0001 17 10.224 17 10.5001C17 10.7763 17.2239 11.0001 17.5 11.0001C17.7761 11.0001 18 10.7763 18 10.5001C18 9.67169 17.3284 9.00012 16.5 9.00012C16.2239 9.00012 16 9.22398 16 9.50012ZM15 9.50012C15 9.22398 14.7761 9.00012 14.5 9.00012H12.5C12.2239 9.00012 12 9.22398 12 9.50012C12 9.77626 12.2239 10.0001 12.5 10.0001H14.5C14.7761 10.0001 15 9.77626 15 9.50012ZM15 17.5001C15 17.7763 14.7761 18.0001 14.5 18.0001H12.5C12.2239 18.0001 12 17.7763 12 17.5001C12 17.224 12.2239 17.0001 12.5 17.0001H14.5C14.7761 17.0001 15 17.224 15 17.5001ZM16 17.5001C16 17.7763 16.2239 18.0001 16.5 18.0001C17.3284 18.0001 18 17.3285 18 16.5001C18 16.224 17.7761 16.0001 17.5 16.0001C17.2239 16.0001 17 16.224 17 16.5001C17 16.7763 16.7761 17.0001 16.5 17.0001C16.2239 17.0001 16 17.224 16 17.5001ZM18 14.5001C18 14.7763 17.7761 15.0001 17.5 15.0001C17.2239 15.0001 17 14.7763 17 14.5001V12.5001C17 12.224 17.2239 12.0001 17.5 12.0001C17.7761 12.0001 18 12.224 18 12.5001V14.5001ZM10 10.5001C10 10.7763 9.77614 11.0001 9.5 11.0001C9.22386 11.0001 9 10.7763 9 10.5001C9 9.6717 9.67157 9.00012 10.5 9.00012C10.7761 9.00012 11 9.22398 11 9.50012C11 9.77626 10.7761 10.0001 10.5 10.0001C10.2239 10.0001 10 10.224 10 10.5001ZM9 16.5001C9 16.224 9.22386 16.0001 9.5 16.0001C9.77614 16.0001 10 16.224 10 16.5001C10 16.7763 10.2239 17.0001 10.5 17.0001C10.7761 17.0001 11 17.224 11 17.5001C11 17.7763 10.7761 18.0001 10.5 18.0001C9.67157 18.0001 9 17.3285 9 16.5001ZM9.5 15.0001C9.22386 15.0001 9 14.7763 9 14.5001V12.5001C9 12.224 9.22386 12.0001 9.5 12.0001C9.77614 12.0001 10 12.224 10 12.5001V14.5001C10 14.7763 9.77614 15.0001 9.5 15.0001Z" fill="black" fill-opacity="0.9"/>
</svg>
