<svg width="24" height="24" viewBox="0 0 24 24" fill="none" xmlns="http://www.w3.org/2000/svg">
<path fill-rule="evenodd" clip-rule="evenodd" d="M5.70261 15.2727C5.91012 15.2727 6.095 15.1416 6.16365 14.9458L6.74747 13.2805H9.63799L10.2207 14.9455C10.2893 15.1415 10.4743 15.2727 10.6819 15.2727C11.0209 15.2727 11.2569 14.9359 11.1412 14.6173L8.92281 8.51079C8.81141 8.20415 8.52004 8 8.1938 8C7.86768 8 7.57639 8.204 7.46491 8.51047L5.24348 14.6172C5.12757 14.9358 5.36354 15.2727 5.70261 15.2727ZM9.3397 12.4283L8.23172 9.26262C8.2261 9.24655 8.21094 9.2358 8.19392 9.2358C8.1769 9.2358 8.16175 9.24654 8.15612 9.2626L7.04627 12.4283H9.3397ZM12.9331 15.3367C12.7485 15.3367 12.5899 15.2704 12.4573 15.1379C12.3247 15.0053 12.2584 14.8467 12.2584 14.662C12.2584 14.4774 12.3247 14.3187 12.4573 14.1862C12.5899 14.0536 12.7485 13.9873 12.9331 13.9873C13.1178 13.9873 13.2764 14.0536 13.409 14.1862C13.5416 14.3187 13.6079 14.4774 13.6079 14.662C13.6079 14.7828 13.5771 14.8952 13.5155 14.9994C13.454 15.1012 13.3723 15.1829 13.2705 15.2444C13.1711 15.306 13.0586 15.3367 12.9331 15.3367ZM15.1502 15.1379C15.2827 15.2704 15.4413 15.3367 15.626 15.3367C15.7515 15.3367 15.8639 15.306 15.9634 15.2444C16.0652 15.1829 16.1468 15.1012 16.2084 14.9994C16.2699 14.8952 16.3007 14.7828 16.3007 14.662C16.3007 14.4774 16.2344 14.3187 16.1019 14.1862C15.9693 14.0536 15.8107 13.9873 15.626 13.9873C15.4413 13.9873 15.2827 14.0536 15.1502 14.1862C15.0176 14.3187 14.9513 14.4774 14.9513 14.662C14.9513 14.8467 15.0176 15.0053 15.1502 15.1379ZM17.8435 15.1379C17.9761 15.2704 18.1347 15.3367 18.3194 15.3367C18.4448 15.3367 18.5573 15.306 18.6567 15.2444C18.7585 15.1829 18.8402 15.1012 18.9018 14.9994C18.9633 14.8952 18.9941 14.7828 18.9941 14.662C18.9941 14.4774 18.9278 14.3187 18.7952 14.1862C18.6626 14.0536 18.504 13.9873 18.3194 13.9873C18.1347 13.9873 17.9761 14.0536 17.8435 14.1862C17.7109 14.3187 17.6447 14.4774 17.6447 14.662C17.6447 14.8467 17.7109 15.0053 17.8435 15.1379Z" fill="black" fill-opacity="0.9"/>
</svg>
