<svg width="24" height="24" viewBox="0 0 24 24" fill="none" xmlns="http://www.w3.org/2000/svg">
<path fill-rule="evenodd" clip-rule="evenodd" d="M20 5.5C20 6.88071 18.8807 8 17.5 8C16.1193 8 15 6.88071 15 5.5C15 4.11929 16.1193 3 17.5 3C18.8807 3 20 4.11929 20 5.5ZM17.5 7C18.3284 7 19 6.32843 19 5.5C19 4.67157 18.3284 4 17.5 4C16.6716 4 16 4.67157 16 5.5C16 6.32843 16.6716 7 17.5 7ZM17.5 16C17.7761 16 18 16.2239 18 16.5V18H19.5C19.7761 18 20 18.2239 20 18.5C20 18.7761 19.7761 19 19.5 19H18V20.5C18 20.7761 17.7761 21 17.5 21C17.2239 21 17 20.7761 17 20.5V19H15.5C15.2239 19 15 18.7761 15 18.5C15 18.2239 15.2239 18 15.5 18H17V16.5C17 16.2239 17.2239 16 17.5 16ZM8.82978 5.26071L7.71277 9.17021L3.78742 10.3008L4.06419 11.2617L3.78742 10.3008C2.08501 10.7911 2.09214 13.2059 3.79743 13.6861L7.71384 14.7891L8.82978 18.6948C9.31607 20.3968 11.7281 20.3968 12.2143 18.6948L13.331 14.7867L17.2391 13.6701C18.9411 13.1838 18.9411 10.7718 17.2391 10.2855L13.331 9.16888L12.2143 5.26071C11.7281 3.55872 9.31607 3.55872 8.82978 5.26071ZM4.06851 12.7236C3.33213 12.5162 3.32905 11.4734 4.06419 11.2617L8.52206 9.97778L9.79131 5.53543C10.0013 4.80048 11.0428 4.80048 11.2528 5.53543L12.5221 9.97778L16.9644 11.247C17.6993 11.457 17.6994 12.4985 16.9644 12.7085L12.5221 13.9778L11.2528 18.4201C11.0428 19.1551 10.0013 19.1551 9.79131 18.4201L8.52206 13.9778L4.06851 12.7236Z" fill="black" fill-opacity="0.9"/>
</svg>
