<svg width="24" height="24" viewBox="0 0 24 24" fill="none" xmlns="http://www.w3.org/2000/svg">
<path d="M10.5 4C14.0899 4 17 6.91015 17 10.5C17 12.1149 16.4094 13.5908 15.4346 14.7275L19.8535 19.1465L19.918 19.2246C20.0461 19.4187 20.0244 19.6827 19.8535 19.8535C19.6827 20.0244 19.4187 20.0461 19.2246 19.918L19.1465 19.8535L14.7275 15.4346C13.5908 16.4094 12.1149 17 10.5 17C6.91015 17 4 14.0899 4 10.5C4 6.91015 6.91015 4 10.5 4ZM10.5 5C7.46243 5 5 7.46243 5 10.5C5 13.5376 7.46243 16 10.5 16C13.5376 16 16 13.5376 16 10.5C16 7.46243 13.5376 5 10.5 5Z" fill="black" fill-opacity="0.9"/>
</svg>
