<svg width="24" height="24" viewBox="0 0 24 24" fill="none" xmlns="http://www.w3.org/2000/svg">
<path d="M12.0004 3C12.4124 3.00002 12.819 3.02815 13.2172 3.08203C14.0186 3.19072 14.4446 3.86716 14.5141 4.44238C14.5872 5.04881 14.9339 5.61043 15.5004 5.9375C16.0668 6.26439 16.7259 6.28369 17.2875 6.04395C17.7867 5.831 18.5195 5.84414 19.017 6.37207L19.1127 6.48535L19.2953 6.72852C19.7111 7.30307 20.061 7.92945 20.3334 8.5957C20.6393 9.34414 20.2655 10.051 19.8022 10.3984C19.3134 10.765 19.0004 11.3457 19.0004 12C19.0004 12.6543 19.3134 13.235 19.8022 13.6016C20.2655 13.949 20.6393 14.6559 20.3334 15.4043C20.022 16.1658 19.6093 16.875 19.1127 17.5146C18.6176 18.1524 17.82 18.1832 17.2875 17.9561C16.7259 17.7163 16.0668 17.7356 15.5004 18.0625C14.9339 18.3896 14.5872 18.9512 14.5141 19.5576C14.4446 20.1328 14.0186 20.8093 13.2172 20.918C12.819 20.9718 12.4124 21 12.0004 21C11.5884 21 11.1819 20.9718 10.7836 20.918C9.98195 20.8095 9.55631 20.1329 9.48674 19.5576C9.41366 18.9514 9.06661 18.3896 8.50041 18.0625C7.93408 17.7355 7.27395 17.7164 6.71232 17.9561C6.17991 18.1831 5.38218 18.1521 4.88713 17.5146C4.39062 16.8751 3.97782 16.1657 3.66642 15.4043C3.36061 14.6558 3.7343 13.9489 4.19767 13.6016L4.37248 13.4551C4.76013 13.0894 5.00041 12.5727 5.00041 12C5.0004 11.3457 4.68654 10.7649 4.19767 10.3984C3.73429 10.0511 3.36058 9.34421 3.66642 8.5957L3.78849 8.3125C4.08284 7.65795 4.45267 7.04502 4.88713 6.48535L4.98381 6.37207C5.48124 5.84457 6.21327 5.83114 6.71232 6.04395C7.27395 6.28361 7.93408 6.26447 8.50041 5.9375C9.06661 5.61038 9.41366 5.04864 9.48674 4.44238L9.50334 4.33398C9.6102 3.78502 10.0318 3.18375 10.7836 3.08203L11.0834 3.0459C11.385 3.01535 11.6913 3 12.0004 3ZM12.0004 4C11.6333 4 11.2714 4.02439 10.9174 4.07227C10.6755 4.10501 10.5082 4.32013 10.4789 4.5625C10.3698 5.4678 9.85076 6.31257 9.00041 6.80371C8.15003 7.29468 7.15832 7.32176 6.31974 6.96387C6.09571 6.86843 5.82658 6.90635 5.67717 7.09863C5.23562 7.66743 4.86878 8.29735 4.59221 8.97363C4.49992 9.1993 4.60233 9.45129 4.79728 9.59766C5.52724 10.1449 6.0004 11.0175 6.00041 12C6.00041 12.9825 5.52724 13.8551 4.79728 14.4023C4.60232 14.5487 4.49992 14.8007 4.59221 15.0264C4.86878 15.7026 5.23562 16.3326 5.67717 16.9014C5.82658 17.0937 6.09571 17.1316 6.31974 17.0361C7.15831 16.6782 8.15003 16.7053 9.00041 17.1963C9.85076 17.6874 10.3698 18.5322 10.4789 19.4375C10.5082 19.6799 10.6755 19.895 10.9174 19.9277C11.2714 19.9756 11.6333 20 12.0004 20C12.3674 20 12.7295 19.9756 13.0834 19.9277C13.3249 19.8947 13.4917 19.6796 13.5209 19.4375C13.6301 18.5321 14.1498 17.6874 15.0004 17.1963C15.8508 16.7055 16.8416 16.6782 17.6801 17.0361C17.9042 17.1317 18.1732 17.0938 18.3227 16.9014C18.7642 16.3326 19.131 15.7027 19.4076 15.0264C19.4999 14.8007 19.3976 14.5487 19.2026 14.4023C18.4725 13.8551 18.0004 12.9826 18.0004 12C18.0004 11.0174 18.4725 10.1449 19.2026 9.59766C19.3976 9.45133 19.4999 9.19934 19.4076 8.97363C19.131 8.29734 18.7642 7.66744 18.3227 7.09863C18.1732 6.90617 17.9042 6.86831 17.6801 6.96387C16.8416 7.3218 15.8508 7.29454 15.0004 6.80371C14.1498 6.31262 13.6301 5.46794 13.5209 4.5625C13.4917 4.32038 13.325 4.10532 13.0834 4.07227C12.7295 4.02438 12.3675 4.00002 12.0004 4ZM11.9994 8.5C13.9324 8.5 15.4994 10.067 15.4994 12C15.4994 13.933 13.9324 15.5 11.9994 15.5C10.0666 15.4998 8.49943 13.9328 8.49943 12C8.49943 10.0672 10.0666 8.50024 11.9994 8.5ZM11.9994 9.5C10.6189 9.50024 9.49943 10.6194 9.49943 12C9.49943 13.3806 10.6189 14.4998 11.9994 14.5C13.3801 14.5 14.4994 13.3807 14.4994 12C14.4994 10.6193 13.3801 9.5 11.9994 9.5Z" fill="black" fill-opacity="0.9"/>
</svg>
